<svg width="1512" height="982" viewBox="0 0 1512 982" fill="none" xmlns="http://www.w3.org/2000/svg">
<g clip-path="url(#clip0_376_1952)">
<rect width="1512" height="982" fill="#FFFAF5"/>
<path d="M390.756 -35.5112C395.687 -41.49 405.388 -37.666 404.913 -29.9308L402.833 3.94798C402.62 7.40727 404.659 10.6099 407.884 11.8809L439.462 24.3284C446.671 27.1704 446.032 37.5781 438.529 39.5167L405.665 48.0075C402.31 48.8744 399.894 51.8035 399.682 55.2628L397.602 89.1417C397.127 96.8769 387.031 99.4852 382.868 92.9482L364.638 64.3169C362.776 61.3934 359.244 60.0011 355.888 60.8681L323.025 69.3588C315.522 71.2974 309.921 62.5018 314.852 56.523L336.448 30.3372C338.654 27.6634 338.886 23.8738 337.025 20.9503L318.794 -7.68091C314.632 -14.218 321.266 -22.2624 328.476 -19.4203L360.054 -6.97283C363.278 -5.70184 366.954 -6.6516 369.16 -9.32538L390.756 -35.5112Z" fill="#FFEFE1"/>
<path d="M67.5409 207.717C73.3961 202.719 82.4657 205.934 83.866 213.504L133.65 482.601C135.05 490.171 127.731 496.418 120.476 493.846L-137.462 402.411C-144.717 399.839 -146.468 390.377 -140.613 385.38L67.5409 207.717Z" fill="#FFEFE1"/>
<path d="M1457.32 718.936C1460.86 719.288 1464.27 720.496 1467.24 722.454L1529.34 763.345C1532.32 765.304 1534.77 767.956 1536.49 771.073L1572.48 836.138C1574.2 839.255 1575.14 842.743 1575.22 846.304L1576.84 920.638C1576.92 924.199 1576.13 927.725 1574.54 930.914L1541.44 997.488C1539.85 1000.68 1537.51 1003.43 1534.63 1005.52L1474.37 1049.08C1471.49 1051.17 1468.14 1052.52 1464.61 1053.03L1391.02 1063.6C1387.49 1064.11 1383.9 1063.75 1380.54 1062.56L1310.46 1037.72C1307.1 1036.53 1304.08 1034.54 1301.67 1031.93L1251.16 977.363C1248.74 974.75 1246.99 971.587 1246.06 968.149L1226.7 896.363C1225.77 892.925 1225.69 889.312 1226.47 885.836L1242.68 813.274C1243.46 809.798 1245.07 806.562 1247.37 803.846L1295.45 747.13C1297.75 744.413 1300.68 742.296 1303.98 740.961L1372.91 713.084C1376.21 711.749 1379.79 711.235 1383.33 711.587L1457.32 718.936Z" fill="#FFDEC2"/>
<path d="M1377.92 55.2807C1378.52 52.2908 1381.27 50.2266 1384.31 50.4826L1407.81 52.4626C1408.21 52.4963 1408.61 52.4898 1409.01 52.4434L1432.43 49.7121C1435.46 49.3589 1438.27 51.334 1438.97 54.3033L1444.35 77.2642C1444.44 77.6542 1444.57 78.0342 1444.73 78.3983L1454.57 99.8316C1455.84 102.603 1454.83 105.888 1452.22 107.467L1432.05 119.678C1431.71 119.885 1431.38 120.126 1431.09 120.398L1413.75 136.376C1411.5 138.442 1408.07 138.497 1405.76 136.504L1387.91 121.089C1387.61 120.827 1387.28 120.597 1386.93 120.4L1366.37 108.842C1363.72 107.347 1362.6 104.096 1363.78 101.285L1372.93 79.5481C1373.08 79.1788 1373.2 78.7949 1373.28 78.4021L1377.92 55.2807Z" fill="#FFDEC2"/>
</g>
<defs>
<clipPath id="clip0_376_1952">
<rect width="1512" height="982" fill="white"/>
</clipPath>
</defs>
</svg>
