<?xml version="1.0" encoding="UTF-8"?><svg id="a" xmlns="http://www.w3.org/2000/svg" viewBox="0 0 548.2 869.49"><path d="M288.46,867.43h-.87c-.41-.15-.85-.22-1.29-.22-11.62,2.53-23.43,2.38-35.21,2.18-7.7-.13-15.39-.65-22.68-3.67-1.79-.74-2.56-1.66-2.6-3.58-.11-5.77,2.56-10.06,6.94-13.49,5.94-4.64,13.11-6.95,19.71-10.33,14.2-7.29,24.85-22.26,19.67-40.34-3.15-11-7.09-21.71-10.76-32.52-5.48-16.15-9.92-32.62-15.3-48.8-2.58-7.73-4.83-15.61-4.93-23.88,0-4.1,0-4-4-4.54-9.89-1.37-19.49-3.71-27.22-10.55-7-6.21-11.3-11.8-8-20.64l.32-.83c1.76-3,2.83-6.35,4.69-9.37,7.39-12.05,14.48-24.28,21.72-36.42,6.13-10.3,11.73-20.89,16.89-31.68,4.41-9.22,8-18.86,11.76-28.36,.73-1.82,1.79-3.71,1-6.36-3.91,4.31-8.66,6.61-13.61,8.26-5.07,1.7-10.63,1.05-15.17-1.77-2.28-1.33-3.82-3.59-6.28-4.61l-.58-.59c-.06-.26,0-.58-.19-.77-5.34-7.12-8.5-15.36-11.93-23.44-3.7-8.76-7.13-17.64-10.65-26.48-2.71-6.82-5.44-13.63-7.72-20.62-2.19-6.72-4.38-13.44-6.19-20.27-.28-1.06-.51-2.77-2-2.59-4.55,.57-7.15-2.54-9.57-5.27-6-6.75-8.91-15.09-10.54-23.81-.5-2.64-.36-5.16-3.31-6.4-.38-.16-.53-.89-.78-1.36,3.36,.1,6.6,1.07,9.91,1.51,3.75,.51,7.48,1.63,11.25,.07,1.58-.65,2.28-1.61,1.77-3.38-2-7.19-2.09-14.32,.88-21.3,.68-1.62,.42-3.48-.67-4.86-1-1.57-2.45-2.94-2.87-4.87,1.85,0,3.1,1.39,4.59,2.19,.8,.58,1.85,.7,2.76,.32,4.1-1.76,8.83-1.14,12.33,1.63,8.7,6.45,10.87,15.58,10.32,25.79-.41,6.52-1.87,12.94-4.33,19-.48,.79-.48,1.79,0,2.58,1.65,2.37,3.05,5,4.92,7.15,7.26,8.25,13.54,17.31,18.71,27,3.76,7.34,7.91,14.49,12.41,21.4,1.11,1.67,1.91,2.14,2.93,0,1.66-3.53,3.62-6.94,5.06-10.56,4.54-11.41,10.8-22,16.27-32.91,2.48-4.94,5.82-9.36,8.27-14.3,.11-.11,.18-.25,.22-.4,1.22-.55,1.25-1.77,1.33-2.78,.31-3.71,.6-7.42,.66-11.14,.09-5.26-.06-10.54,0-15.81,0-3.9,.06-3.91-3.81-2.9-10.1,2.65-20.23,5-30.83,3.73-8.91-1-17.49-3.12-25.41-7.45-10.02-5.56-18.93-12.92-26.3-21.69-4.53-5.3-8.64-11-11.19-17.61-4.58-11.72-5.89-24.47-3.78-36.88,2.06-12.58,6.75-24.58,13.78-35.22,6.25-9.52,15-16.48,24.33-22.64,7.22-4.77,14.87-8.84,24.08-7.78,1,.12,1.78-.43,1.13-1.44-1.12-1.75-1-3.84-1.87-5.64-5.47-11.06-10.91-22.13-16.34-33.21-4.22-8.55-8.69-17-12.45-25.75,.42-.92,1.37-.81,2.12-1,4-.77,8.16-1,11.92-2.31,9.19-3.29,18.45-6.46,27-11.39,10.09-5.86,19.36-12.67,26.35-22.18,1.13-1.53,1.56-1.81,2.81-.07,8.19,11.35,16.5,22.63,24.77,33.93,.75,.82,1.17,1.89,1.19,3-1.35,1.87-4.07,2.34-4.88,4.77-.36,.01-.65,.32-.63,.68,0,.11,.04,.22,.09,.32,.13,.2,.35,.32,.59,.31,.39-.15,.39-.55,.33-.92,2.26-1.13,4.5-2.31,6.77-3.4,6.66-3.18,13-7,20.44-8.42,.54,2.31,1.91,4,4.28,4.21s4.49,.51,6.71,.53c9.78,.07,18.68,3.3,27.55,7,3.67,1.51,6.88,3.91,10.68,5.09l.47,.26c.12,.63,.53,1.17,1.11,1.44,3.77,2.64,7.36,5.53,10.75,8.65,2.68,2.38,4.9,5.32,8.08,7.13l.78,1.05c1.33,2.91,3.27,5.5,5.7,7.59l.31,.53c-.12,1.57,.8,2.77,1.48,4,2.48,4.62,4.36,9.54,5.61,14.63,.84,3.71,1.47,7.47,1.9,11.25,.8,6.07,.8,12.23,0,18.3-.9,7.22-3.37,14-5.07,21-.46,2.49-1.23,4.91-2.3,7.2-1.44,.14-.94-2.62-2.45-1.87s-.75,2.47-.78,3.75c-.13,7.72,1.78,15.22,3,22.77,1.76,11.21,3.73,22.39,5.12,33.65,1.26,10.23,1.26,20.55,1.71,30.84,.38,8.44-.77,16.84-.53,25.27,.18,6.08-.72,12.11-.64,18.19-.07,3.97-.44,7.93-1.09,11.84-.16,1.15,.22,2.86-1.58,3.37,.33-3.46-.42-6.87-.6-10.3-.2-3.7-2.69-5.31-5.68-4-15.21,6.82-30.57,13.28-45.52,20.65-2.15,1.17-4.75,1.2-6.93,.09-1.56-.71-3.06-1.54-4.54-2.39-10.92-6.27-21.92-12.41-33.34-17.7-3.35-1.55-7.51-1.25-7.64,3.86,0,1.89,.12,3.73,.14,5.6,.06,7.61,.57,15.19,1.07,22.78s.82,15,.59,22.57c-.06,1.45,.17,2.9,.69,4.26,1.26,3.21,3.15,3.85,6.16,2.13,13.13-7.52,25.83-15.73,38.7-23.66,1.73-1.07,3.23-1.32,5-.24,14.6,8.73,29,17.79,44.25,25.4-.7,4.38-2.16,8.57-3.18,12.86-3.06,12.18-7.03,24.12-11.87,35.72-4.06,10.08-8.73,19.9-14,29.41-5.2,9.43-10.82,18.56-16.77,27.51-6.43,9.64-13.42,18.9-20.92,27.73-7.17,8.5-14.37,17-22,25.07-9,9.58-19.09,18-27.77,27.84-1.06,1.2-2.82,2.45-2.55,3.91,.32,1.72,2.56,.52,3.81,1.15-1.35,2.25-3.76,3.74-4.61,6.36-.11,.1-.19,.22-.23,.36-2.81,2.17-2.79,3.79,0,6.21,.05,.15,.13,.29,.25,.4,.11,1.58,1.21,2.6,2.17,3.64,4.31,4.67,6.94,10.38,9.73,15.94,2.8,5.92,4.66,12.24,5.51,18.73,.75,5.3,1,10.65,.75,16-.15,4.53-1.63,8.92-1.2,13.48,0,.36-.05,.71-.08,1.06-.37,.27-.58,.71-.56,1.17-.32,6.14-1,12.28-.49,18.43,.21,2.56,.18,5.24,1.52,7.61l.18,1c-.29,.57-.18,1.26,.28,1.71,.05,.53,.11,1.06,.16,1.58-.27,3.35,.55,6.71,2.33,9.56,.14,.44,.29,.89,.43,1.34,1,4.47,3.91,8.13,5.33,12.43,0,.08,.33,.08,.5,.11h0c2.19,5.67,3.4,11.59,4.67,17.52,2.58,12.06-4.66,21.44-14.86,23.64-2.54,.62-5.44,.3-7.93,1.75Zm88.13-531.59c-2.82,3.29-5.75,6.5-8.46,9.89-13.43,16.79-31.36,25.87-51.91,30.53-6.64,1.51-13.42,2.1-20.13,3.11-4.88,.32-9.77,.2-14.63-.33-.52-.06-1.11-.39-1.5,.14s.07,1.13,.4,1.68c2.26,3.5,4.83,6.79,7.7,9.81,5.52,6.25,11.41,12.09,18.43,16.7,.76,1.23,1.75,2.31,2.91,3.18,7,5.67,15.12,8.81,23.9,10.46,9.15,1.8,18.64,.48,26.95-3.75,14.06-6.94,23-18.38,28.59-32.55,2.3-5.84,3.8-12.14,3-18.64,.15-2.62,.34-5.25,.43-7.88,.4-11.41-2.46-22.13-7-32.46-1.11-2.51-2.07-2.46-3.41,0-1.82,3.35-3.51,6.77-5.27,10.15v-.04Zm-35.32-135.18c-2.19,0-4.37,.14-6.54,.42-21.64,2.67-39,12.16-50.61,31.21-12.67,20.46-9.47,46.98,7.72,63.83,11.95,11.78,26.75,16.85,43.17,17.16,12.16,.33,24.15-2.86,34.53-9.21,20.2-12.41,31.86-29.81,30.29-54.39-.54-8.77-3.61-17.19-8.84-24.25-12.28-16.78-29.44-23.95-49.72-24.73v-.04Zm-52.09,129c0-21.87-6.59-37.5-19.08-48.06-13.16-11.12-30.91-13.63-46.25-5.07-12.36,6.71-21.78,17.78-26.42,31.06-6.81,18.92-6.5,37.49,3.92,55.09,13.37,22.58,41.53,30.4,64.22,12.84,14.39-10.9,23.08-27.74,23.61-45.79v-.07Z" fill="#fac726"/><path d="M398.29,800.66c.98-.76,1.64-1.86,1.84-3.08,.87-.75,1.34-1.86,1.26-3l1.77-4.87c1.11-2.04,1.82-4.26,2.11-6.56l.63-2.16c.92-1.51,1.41-3.23,1.44-5,.08-.35,.17-.69,.25-1,.65-.77,.96-1.78,.84-2.78,.07-.35,.14-.69,.2-1,.41-.21,.56-.72,.35-1.12l-.02-.03,.18-1c.54-.38,.71-1.1,.4-1.68l.18-1c1.16-3.16,1.84-6.48,2-9.85,.05-.35,.09-.7,.14-1.06,.51-.4,.66-1.11,.35-1.68,.08-.53,.15-1.06,.23-1.59,.5-.4,.65-1.1,.37-1.67,0-.35,.11-.7,.16-1.06,.5-.4,.65-1.1,.37-1.67,.06-.35,.11-.7,.17-1.05,1.12-2.99,1.8-6.13,2-9.32l.18-1.05c1.09-2.8,1.76-5.75,2-8.75,.07-.35,.13-.71,.19-1.06,.62-1,.9-2.17,.8-3.34l.21-1c.41-.23,.55-.74,.33-1.15,.08-.35,.16-.69,.25-1,.64-.78,.96-1.77,.88-2.78,.08-.34,.16-.69,.25-1,.62-.79,.92-1.79,.83-2.79,.53-1.71,1.05-3.42,1.58-5.13,.8-.79,1.25-1.87,1.26-3l2.59-5.7c1.05-.88,.68-1.45-.4-1.86l-3.13-3.42c-.03-.58-.44-1.07-1-1.21l-5-7.51c-.25-1.35-.98-2.57-2.06-3.42-.24-.48-.47-1-.71-1.45-.78-2.29-2-4.4-3.59-6.21l-.78-1.42c-.17-1.38-.89-2.62-2-3.46-.02-.13-.08-.26-.17-.36-.55-1.68-1.09-3.37-2.53-4.56l-1.27-2.54c.07-.57-.25-1.11-.77-1.33l-.45-1.32c.07-1-.42-1.95-1.26-2.48l-.9-2.44c.02-1.13-.44-2.23-1.27-3-.51-1.72-1.02-3.43-1.54-5.14,.21-.41,.06-.92-.34-1.15l-.24-1c.1-1-.2-2.01-.82-2.8l-.27-1c.06-1.07,0-2.2-1-2.72-.71-.38-1.23,.32-1.46,1.05-.11,.09-.18,.21-.22,.34-2.36,1.6-4.4,3.64-6,6-.13,.04-.25,.12-.33,.23-1.18,0-1.66,1-2.37,1.63-3.98,3.68-8.25,7.02-12.78,10-.29-1.21,.55-1.88,1.32-2.48,7.54-5.95,14.52-12.56,20.86-19.77,9.49-10.72,17.6-22.57,24.17-35.29,6.22-11.86,11.25-24.31,15-37.17,5.15-17.79,9.76-35.66,8.87-54.48-.27-5.68,.42-11.4,.44-17.1,0-8.07-.91-16.12-.49-24.2,.07-3.35-.16-6.69-.68-10-1.25-10.12-1.49-20.32-3-30.42-1.39-8.9-2.3-17.88-4.2-26.69-2.63-12.19-5.49-24.32-9.2-36.25-1.57-5.07-3.77-10-4.59-15.29,2.57,4.23,3.51,9.09,5,13.71,4.38,14.13,8,28.48,10.84,43,1.24,6,3.84,11.71,4.5,17.9,.13,1.17,.86,1.26,1.72,.58,.15-.11,.28-.24,.4-.38,9.81-11.25,21.92-20.55,28.81-34.26,1.74-3.2,3.2-6.55,4.38-10,2.13-7,4.65-13.77,7.27-20.55,7.18-18.62,11.85-37.92,15.37-57.53,.22-1.21,.17-2.17-.87-2.89-5.76-4-7.6-10.2-9.13-16.52-2.69-11.1-4.48-22.48-10.46-32.52-1.68-2.81-3.34-5.61-3.86-8.94-.47-2.95,.42-5.72,2.81-7.11s5.12-2.11,7.92-.32c2.6,1.65,4.42,4,6.45,6.2,.59,.64,1.13,1.57,2.24,1.17,.95-.34,.83-1.25,1-2.06,1-6.49,7.69-10.49,13.13-7,4.47,2.84,9.38,3.69,14.08,5.43,1.79,.66,3.33,1.47,4.1,3.29,.42,1,1.19,1.19,2.13,1.4,1.5,.34,2.98,.78,4.43,1.31,2.86,1,4.55,2.95,4.59,6.06,0,2,.78,3,2.84,3.17,3.46,.28,5.42,2.18,6.5,5.58,1.39,4.12,1.68,8.53,.85,12.8-1.6,7.97-5.01,15.47-9.97,21.92-3.69,5-7.15,10.06-9.27,15.94-1.23,2.93-1.79,6.1-1.63,9.28,.19,2.1-.68,4.27-.76,6.43-.35,9.08,.27,18.17,.21,27.24-.09,12.89-.63,25.79-3.33,38.47-.87,4.09-1.41,8.23-2,12.36-1.1,8.22-4.19,16.04-9,22.79-7.87,11.13-15.2,22.63-23.47,33.49-13.67,17.89-27,36-42.68,52.25-.97,.97-1.55,2.26-1.63,3.63-1.58,18.01-5.17,35.79-10.71,53-.63,1.96-.57,4.08,.16,6,9.55,28.31,18.74,56.74,24.51,86.13,2.16,10.77,3.69,21.66,4.56,32.61,.75,9.63-.33,19.31-3.19,28.53-5.03,16.05-11.22,31.71-18.54,46.85-6.73,14.08-13.34,28.25-17.22,43.5-.61,2.39-.73,4,2.16,4.57,1.14,.31,2.19,.9,3.06,1.71,7.21,6.38,13.47,13.48,16.61,22.83,1.2,2.99,1.17,6.33-.06,9.3-1.78,4-4,5.26-8.37,4.9-6.15-.64-12.2-2.06-18-4.22-10.51-3.51-19.54-10.46-25.63-19.72-2.74-4.02-3.68-8.99-2.59-13.73,.81-4,2.05-7.91,4.84-11.11,.58-.81,1.09-1.67,1.51-2.57,.56-.16,.95-.65,.98-1.23Z" fill="#fac827"/><path d="M420.67,347.73c.82,5.3,3,10.22,4.59,15.29,3.71,11.93,6.57,24.06,9.2,36.25,1.9,8.81,2.81,17.79,4.2,26.69,1.56,10.1,1.8,20.3,3,30.42,.52,3.31,.75,6.65,.68,10-.42,8.08,.52,16.13,.49,24.2,0,5.7-.71,11.42-.44,17.1,.89,18.82-3.72,36.69-8.87,54.48-3.75,12.86-8.78,25.31-15,37.17-6.57,12.72-14.68,24.57-24.17,35.29-6.33,7.22-13.3,13.85-20.83,19.81-.77,.6-1.61,1.27-1.32,2.48-2,1.33-4,2.75-6.13,4-6.62,3.91-12.93,8.37-20,11.54-5.42,2.26-10.95,4.24-16.57,5.93-14.55,4.71-29.58,7.74-44.82,9.05-1.25-.63-3.49,.57-3.81-1.15-.27-1.46,1.49-2.71,2.55-3.91,8.68-9.85,18.81-18.26,27.77-27.84,7.59-8.11,14.79-16.57,22-25.07,7.49-8.81,14.47-18.04,20.9-27.65,5.95-9,11.57-18.08,16.77-27.51,5.27-9.51,9.94-19.33,14-29.41,4.84-11.6,8.81-23.54,11.87-35.72,1-4.29,2.48-8.48,3.18-12.86,4.8,1.24,5.89,.6,6.47-4.19,.37-2.95,.56-5.92,.58-8.89,.07-10.86,0-21.71,0-32.57-.16-1.17,.02-2.36,.52-3.43,1.8-.51,1.42-2.22,1.58-3.37,.64-3.93,1-7.9,1.06-11.88-.08-6.08,.82-12.11,.64-18.19-.24-8.43,.91-16.83,.53-25.27-.45-10.29-.45-20.61-1.71-30.84-1.39-11.26-3.36-22.44-5.12-33.65-1.18-7.55-3.09-15-3-22.77,0-1.28-.7-3,.78-3.75s1,2,2.45,1.87c-1.44,2.64-.38,5,.7,7.43,1.45,3.21,2.88,6.45,4,9.77,3.17,9,6.2,18.14,9.29,27.21,.31,.92,.34,2,1.43,2.47l.56,1.47Z" fill="#ecbc23"/><path d="M270.62,103.67c.02,.12,.14,.2,.26,.18h.02c.31,.84,1.13,1.12,1.79,1.57,4.51,3,9.06,6,13.52,9.15,4.67,3.26,5.68,7.35,3.3,12.53-.55,1.21-1.54,2.28-1.37,3.76l-.7,.94c-1.38,.86-2.26,2.31-2.39,3.93-4.16,6-9.17,11.43-14.05,16.86-12,13.33-27.21,21.59-44,27.41-7.69,2.67-15.68,3.48-23.57,4.93-3.71-.59-7.42,.17-11.13,0-4.58-.22-6-1.24-6.81-5.75-1.79-9.73-3-19.54-4.38-29.34-.87-6.35-1.47-12.74-3.11-19l-.12-1.1c.13-5.37-1.22-10.58-1.9-15.85-.52-4-.43-8.09-1.8-11.95-.05-.37-.09-.74-.14-1.1,.35-.73,.22-1.6-.32-2.2l-.13-1.1c.04-.72,.04-1.43,0-2.15-1.47-10.75-2.88-21.53-4.47-32.29-1.37-9.41-2.11-18.92-4.09-28.24,.85-1.17,2-.94,3.18-.69,2.7,1.94,5.36,3.94,8.11,5.81,4.53,3.06,8.77,6.54,13.62,9.11,.03,.13,.15,.22,.28,.2,.81,1.26,2.09,2.15,3.56,2.48,.03,.14,.17,.22,.31,.19,2.8,2.73,6.33,4.42,9.53,6.57,6.28,4.21,12.44,8.62,19,12.4,.04,.12,.16,.2,.29,.18,.28,.34,.59,.66,.93,.94,10.86,7.54,21.68,15.13,32.61,22.57,4.67,3.15,9.09,6.62,14.17,9.05Z" fill="#ca1e23"/><path d="M203.46,184.93c7.89-1.45,15.88-2.26,23.57-4.93,16.76-5.82,32-14.08,44-27.41,4.88-5.43,9.89-10.81,14.05-16.86l1.51,.08,.47,.64c0,1,.88,1.55,1.5,2.17,5,5,9.95,10.07,15,15,1.4,1.37,2.55,3.07,4.42,3.94,4.39,4.54,8.5,9.34,12.32,14.37,.15,.96,.85,1.74,1.78,2l1.91,2.34c-6.91,2.73-13.58,6.02-19.94,9.85-.02-1.11-.44-2.18-1.19-3-8.27-11.3-16.58-22.58-24.77-33.93-1.25-1.74-1.68-1.46-2.81,.07-7,9.51-16.26,16.32-26.35,22.18-8.52,4.93-17.78,8.1-27,11.39-3.76,1.35-7.94,1.54-11.92,2.31-.75,.15-1.7,0-2.12,1-1.35-.84-3.41,.84-4.43-1.21Z" fill="#ecbc23"/><path d="M112.66,296.73c-4.73,2.14-9.75,2.19-14.81,2.09-4.17-.08-6.47,2.65-5.15,6.58,1.34,4.06,4.07,7.51,7.72,9.74,4,5.17,8.42,9.91,14.87,12.13,1.25,.43,3.05,.56,3.14,2.16,.1,1.82,.08,3.91-1.58,5.23-1.47,1.17-3.54,1.21-5.06,.1-3.3-2.06-6.47-4.32-9.76-6.39-3-1.89-4.8-5.2-8-6.9,0-1.41-.86-2.32-1.66-3.31-2.72-3.42-4.79-7.31-6.1-11.48-2.26-7,.47-11.79,7.42-14.07,4.61-1.51,9.15-.59,13.74-.31,3.44,.22,5.27-1.45,6.6-5.8,.73-2.37-.56-5.13-3.22-6.54-2.46-1.37-4.99-2.6-7.58-3.69-2.59-1-5.21-2.17-8.13-1.83l-1-.12c-1.49-1-3.16-.31-4.73-.45-1.32-.12-2.85,.35-3.52-1.31-.51-1.48-.19-3.12,.86-4.29,.89-1.28,2.3-2.11,3.86-2.25,7.11-.74,13.61,.74,19.31,5.22,.69,.54,1.18,1.41,2.23,1.37,.19,.19,.38,.37,.56,.56,1.52,2,3.12,3.93,4.51,6,2.12,2.9,2.54,6.71,1.1,10-1.16,3-3.66,4.83-5.26,7.39-.13,.02-.26,.08-.36,.17Z" fill="#e7873b"/><path d="M26.22,315.43l1.43-1.22c4.62-2.69,9.15-3.45,13.42,.68,.22,.31,.43,.62,.65,.92,.5,1.68,1.32,3.24,2.4,4.62,.1,.27,.21,.53,.31,.8,.87,2.29,3.11,3.76,5.56,3.63,1.44,.29,2.92-.25,3.83-1.4,.6,0,1.13-.41,1.28-1l1.44-1.22c.82-.15,1.53-.68,1.88-1.44,.12,0,.24-.07,.3-.18l4.31-1.69h2.17l5.3,2.32,1.77,2c.14,1.15,.51,2.26,1.1,3.26v3.27c-.79,1.74-.79,3.73,0,5.47,.07,1,.41,1.97,1,2.79,.91,2.06,2.27,3.55,4.7,3.66,2.45,1.09,4.14-.23,5.63-1.9,.66-.73,1.06-1.91,2.23-1.68,1.88,.37,4.24,.25,4.89,2.69s-1.31,3.33-2.9,4.37c-4,2.64-8.49,2.9-13.09,2.51l-1.05-.67-.09-.07c-.49-.93-1.26-1.67-2.21-2.12l-1.72-2-1.71-7.58v-3.27c.71-2.54,1.55-5.09-1.11-7.1h0c-2.4-2-5.09-1.58-6.63,1.05-.11,.06-.18,.17-.18,.29-.79,.73-1.59,1.44-2.37,2.17-4.8,4.47-10.22,4.64-15.31,.49-.35-.28-.73-.51-1.09-.76h0c-1.44-2.54-2.69-5.19-3.74-7.92-.34-1-1-2-2.36-1.64h-1.51c-.56-.34-1.29-.22-1.71,.28l-1,.2c-1.43-.05-2.78,.65-3.56,1.85l-1.46,1.19-4.85,2.77-1,.25c-.4-.23-.91-.1-1.15,.3l-1.06,.13c-.91-.26-1.86-.26-2.77,0l-1.07-.1c-.42-.47-1.08-.64-1.67-.42l-1.26-.45c-.61-.85-1.4-1.56-2.32-2.07,0-.13-.05-.25-.16-.32-.55-2.48-1.5-4.87-2.79-7.06v-1.09c.96-.59,2.09-.86,3.22-.76,3.15,0,3.81,2.51,5.22,4.32,0,.13,.07,.24,.18,.3-.05,.55,.36,1.04,.91,1.09,.08,0,.16,0,.23,0l1.11,.52c3.19,1.09,6.24-.05,8.43-3.05Z" fill="#fd7c15"/><path d="M168.24,34.17c-1.16-.25-2.33-.48-3.18,.69-.97-.92-2.2-1.54-3.52-1.77-2.77-.49-5.61-.29-8.29,.56-7.21,1.8-14.16,4.52-20.67,8.09-.68,.37-1.44,1.11-2.2,.36-.48-.69-.48-1.61,0-2.3,.67-1.69,1.63-3.25,2.84-4.6,1.28-1.29,1-2.43-.65-3.19-.65-.3-1.36-.49-2-.78s-1.26-.45-1.31-1.21,.63-1,1.18-1.32c2.29-1.31,4.86-2.03,7.5-2.11,1.57,0,3.26,.6,4.73-.51h1.06c3.13-.09,6.22,1,9.38,.44l1,.12c2,1.24,4.45,1.24,6.64,2,1.93,.65,2.5-.26,2.68-2.13,.87-9.06,4.09-17.13,10.49-23.77,.61-.63,1.44-1.14,1.45-2.19l.54-.54c2-.13,2.2,.81,1.83,2.55-.7,3.2-.45,3.4,2.76,3.39h4.07c.68,0,1.58-.35,1.94,.51,.29,.7-.51,1.06-.88,1.54-3.12,4.14-7.16,7.42-10.67,11.18-.72,.78-1.76,1.36-1.8,2.61-.07,.12-.13,.25-.17,.39-.59,.12-.98,.67-.9,1.26-.07,.13-.12,.27-.15,.41-2.92,2.83-3.43,6.58-3.7,10.32Z" fill="#fba15e"/><path d="M57.24,281.12c-2.61-2.08-5.94-1.22-9.82-.1-4.12,1.19-6.27-2.15-4.45-6.22,1-2.22,1.26-3.55-1.53-4.37-1.36-.53-2.55-1.43-3.44-2.59-2.22-2.48-1.68-4.72,1.43-5.91,1.47-.49,3.02-.67,4.56-.53,1.88,.1,2.77-.48,2.84-2.59-.08-2.68,2.03-4.92,4.72-5h.05c2.39-.1,4.24,1.65,4.65,4.69,.25,1.8,.78,2.65,2.8,2s3.94,0,5.83,.73c1.54,.39,2.68,1.71,2.84,3.29,.24,1.61-.76,3.15-2.33,3.58-2.81,.93-4,2.14-2.62,5.24,.65,1.5,.06,3.4-.49,5.06-.65,2.08-1.94,3.08-5.04,2.72Z" fill="#fac827"/><path d="M304.02,186.14c6.36-3.83,13.03-7.12,19.94-9.85,6.11-.71,12.1-2.53,18.34-2,11.85,1.14,23.43,4.25,34.26,9.2,8.15,3.63,16,7.8,22.83,13.6,1.66,1.4,2.98,3.15,3.87,5.13-5.32-1.68-9.26-5.3-13.7-8-12.44-7.68-26.12-13.14-40.44-16.11-7.18-1.45-14.25-.12-21.32,1-.37-.13-.77,0-1,.31-7.4,1.38-13.78,5.24-20.44,8.42-2.27,1.09-4.51,2.27-6.77,3.4l-.38-.38c.74-2.38,3.46-2.85,4.81-4.72Z" fill="#23221c"/><path d="M165.12,339.87c-1.15-3-.45-5.11-.08-7.18,3.33-18.59,8.49-36.66,17.7-53.23,5.7-10.6,13.73-19.79,23.47-26.86,3.8-2.65,7.94-4.79,12.31-6.34,1.09-.54,2.34-.62,3.49-.22-1.95,2.31-4.53,3.64-7,5-16.23,9-27.17,22.64-34.79,39.21-6.45,14-10.28,28.88-13.6,43.88-.4,1.69-.87,3.3-1.5,5.74Z" fill="#23221c"/><path d="M4.05,371.27c-1.6,0-3.09-.08-3.78-1.71-.62-1.49-.13-3.21,1.19-4.14,1.29-1.11,1.87-2,1.16-3.91-.62-1.73,.27-3.64,2-4.26,.68-.25,1.43-.26,2.12-.05,1.66,.42,3.43,.11,4.86-.83,3.32-1.88,5.51-.55,5.4,3.29-.06,1.78,.41,2.89,2,3.67,1.52,.54,2.47,2.07,2.27,3.67-.28,1.84-1.92,2-3.37,2.08-1.6,0-2.98,1.12-3.33,2.68-.56,1.85-1.59,3.41-3.61,3.63s-3.37-1.19-4.13-2.93c-.6-1.46-1.71-1.38-2.78-1.19Z" fill="#fac827"/><path d="M420.2,346.26c-1.09-.47-1.12-1.55-1.43-2.47-3.09-9.07-6.12-18.16-9.29-27.21-1.16-3.32-2.59-6.56-4-9.77-1.08-2.43-2.14-4.79-.7-7.43,1.07-2.29,1.84-4.71,2.3-7.2,1.7-7,4.17-13.82,5.07-21,.8-6.07,.8-12.23,0-18.3-.42-3.76-1.05-7.5-1.87-11.19-1.25-5.09-3.13-10.01-5.61-14.63-.68-1.25-1.6-2.45-1.48-4,2.22,1.69,2.94,4.36,3.93,6.7,7.35,17.27,9.05,35,3.56,53.16-1.84,6.07-2.84,12.39-5.4,18.25-.44,1.11-.35,2.37,.25,3.41,6.22,12.79,9.46,26.67,14.46,39.9,.28,.55,.36,1.18,.21,1.78Z" fill="#fac827"/><path d="M32.5,351.18c-1.4-.07-3.11-.21-4.82-.24-1.91,0-2.7-1-2.89-2.85-.47-4.38,2.21-7.11,6.53-6.56,2.06,.26,4.12,.53,6.17,.88,3.19,.54,2.85,3,2.72,5.27-.12,2.09-.69,3.75-3.35,3.52-1.34-.11-2.69-.02-4.36-.02Z" fill="#ca1e23"/><path d="M131.63,289.73c.03-.67,.09-1.34,.2-2,.75-4,2.18-5,6.2-4.26,3.35,.64,4.73,2.83,3.83,6.44-.48,2.02-1.15,3.98-2,5.87-1.42,3-3.12,3.19-5.41,.85s-2.89-3.61-2.82-6.9Z" fill="#ca1e23"/><path d="M18.45,390.91c2.64,.01,4.77,2.16,4.76,4.8,0,.12,0,.24-.02,.36-.07,2.74-2.21,4.97-4.94,5.16-2.7-.2-4.87-2.31-5.14-5-.05-2.89,2.25-5.27,5.14-5.32,.07,0,.13,0,.2,0Z" fill="#ca1e23"/><path d="M62.46,298.86c-.02,2.66-2.18,4.81-4.84,4.82-2.55-.1-4.53-2.25-4.43-4.8v-.07c.12-2.55,2.14-4.6,4.68-4.76,2.55,.15,4.56,2.25,4.59,4.81Z" fill="#ca1e23"/><path d="M128.67,271c-2.38,.17-4.44-1.62-4.62-4-.06-2.48,1.9-4.55,4.38-4.64,2.38-.03,4.34,1.85,4.41,4.23,.07,2.37-1.8,4.34-4.17,4.41h0Z" fill="#ca1e23"/><path d="M326.73,179.43c.23-.31,.63-.44,1-.31,.92,2.54,3.44,4.13,6.13,3.88,10.11-.18,20.12,1.98,29.26,6.3,3.43,1.63,7.1,2.77,10.28,4.94,.88,.6,2,.93,2.52,2-3.8-1.18-7-3.58-10.68-5.09-8.87-3.66-17.77-6.89-27.55-7-2.22,0-4.48-.3-6.71-.53s-3.71-1.84-4.25-4.19Z" fill="#fac827"/><path d="M396.36,213.74c-3.18-1.81-5.4-4.75-8.08-7.13-3.39-3.12-6.98-6.01-10.75-8.65-.58-.27-.99-.81-1.11-1.44,2.78,.83,4.82,2.85,7,4.57,4.32,3.47,8.39,7.24,12.2,11.26,.44,.34,.7,.84,.74,1.39Z" fill="#fac827"/><path d="M402.82,222.43c-2.43-2.11-4.37-4.74-5.68-7.68,2.51,2.04,4.47,4.68,5.68,7.68Z" fill="#fac827"/><path d="M341.27,200.7c20.28,.78,37.44,7.95,49.72,24.77,5.23,7.06,8.3,15.48,8.84,24.25,1.57,24.58-10.09,42-30.29,54.39-10.38,6.35-22.37,9.54-34.53,9.21-16.42-.31-31.22-5.38-43.17-17.16-17.19-16.85-20.39-43.37-7.72-63.83,11.58-19.05,29-28.54,50.61-31.21,2.17-.28,4.35-.42,6.54-.42Zm25.73,38.17c2.43,16-2.69,26.24-15,29.65-10.44,2.89-21.39-2.48-25.5-12.5-2.5-5.87-2.18-12.56,.89-18.16,3.07-5.89,8.2-9.21,15.1-11.18-4.83-.55-9.73,.14-14.22,2-17.23,6.35-27,23.29-23.24,41.28,2.44,11.75,9.43,20,20.24,25.12,1,.46,1.89,1.12,2.56-.59,1.5-3.87,4.48-6.16,8.6-5.83s7,3,8.21,7c.59,1.92,1.42,2.06,3.14,1.68,19.38-4.27,31.63-23.45,27.36-42.84-.25-1.15-.56-2.29-.93-3.4-1.36-4.61-3.84-8.81-7.21-12.23Z" fill="#fcfbfa"/><path d="M289.18,329.73c-.51,18.07-9.2,34.94-23.61,45.86-22.69,17.56-50.85,9.74-64.22-12.84-10.42-17.6-10.73-36.17-3.92-55.09,4.64-13.28,14.06-24.35,26.42-31.06,15.34-8.56,33.09-6,46.25,5.07,12.49,10.56,19.02,26.19,19.08,48.06Zm-56.16-19c-.42,.09-.82,.24-1.2,.43-7,5.83-9.84,13.37-8.78,22.28,1.14,9.67,6.17,16.89,14.66,21.68,1,.57,1.56,.2,2.17-.75,3-4.68,7.43-4.74,11-.22,2.89,3.65,2.91,3.69,7.29,1.77,1.41-.61,2.76-1.38,4-2.29,10.78-8,12.94-24,4.85-35.68-.39-.57-.63-1.35-1.67-1.36-.15,.4-.28,.81-.37,1.23-1.21,7.59-5.72,12.58-12.5,15.67-6.36,2.88-12.58,1-16.33-4.91-3.44-5.26-4.57-11.7-3.12-17.81v-.04Z" fill="#fcfcfa"/><path d="M159.81,414.37c-1.49-1.21-3.35-1.34-5.12-1.66-23.94-4.38-47.19-11.65-70.9-17-2.06-.46-4.42-.15-6.08-1.94-.21-1.52,1-1.7,2-2.07,6.07-2.27,12.16-4.52,17.12-8.89,3.15-2.78,6.44-5.46,8.72-9.08,2.01-.98,3.43-2.87,3.82-5.07,.92-.1,1.72-.67,2.11-1.5,1.37-2,2.76-4,4.13-6,5.29-7.8,10-16,12.45-25.12,2-7.21,3.3-14.59,2.18-22.15-.22-.92,.32-1.85,1.23-2.1,6,6.8,11.53,14.02,16.54,21.58,9,13.73,18.5,27.17,27.09,41.19,1.49,2.45,2.39,5.35,5,7,.42,1.93,1.84,3.3,2.87,4.87,1.09,1.38,1.35,3.24,.67,4.86-3,7-2.93,14.11-.88,21.3,.51,1.77-.19,2.73-1.77,3.38-3.77,1.56-7.5,.44-11.25-.07-3.33-.47-6.57-1.47-9.93-1.53Z" fill="#ca1e23"/><path d="M407.46,447.19c-.5,1.07-.68,2.26-.52,3.43v32.57c-.02,2.97-.21,5.94-.58,8.89-.58,4.79-1.67,5.43-6.47,4.19-15.24-7.61-29.65-16.67-44.25-25.4-1.81-1.08-3.31-.83-5,.24-12.87,7.93-25.57,16.14-38.7,23.66-3,1.72-4.9,1.08-6.16-2.13-.52-1.36-.75-2.81-.69-4.26,.23-7.53-.09-15.06-.59-22.57s-1-15.17-1.07-22.78c0-1.87-.18-3.71-.14-5.6,.13-5.11,4.29-5.41,7.64-3.86,11.42,5.29,22.42,11.43,33.34,17.7,1.48,.85,3,1.68,4.54,2.39,2.18,1.11,4.78,1.08,6.93-.09,14.95-7.37,30.31-13.83,45.52-20.65,3-1.34,5.48,.27,5.68,4,.1,3.4,.85,6.81,.52,10.27Z" fill="#e78331"/><path d="M306.49,407.43c-7-4.61-12.91-10.45-18.43-16.7-2.87-3.02-5.44-6.31-7.7-9.81-.33-.55-.9-1-.4-1.68s1-.2,1.5-.14c4.87,.54,9.77,.65,14.66,.33-.1,5.8,2.93,10.11,6.72,14,.54,.51,1.26,.79,2,.8,11.04,1.02,22.17-.36,32.62-4.06,10.45-3.92,20.29-9.3,29.22-16,7.87-5.73,14.53-12.56,18.82-21.46,.47-1,1.24-2,.93-3.06-1.66-5.71-4.39-10.71-9.79-13.78,1.76-3.38,3.45-6.8,5.28-10.13,1.34-2.44,2.3-2.49,3.41,0,4.54,10.33,7.4,21.05,7,32.46-.09,2.63-.28,5.26-.43,7.88-1.13,.48-1.45,1.56-1.88,2.55-2.17,5.11-5.05,9.88-8.57,14.17-12.92,15.44-30.09,23-49.47,26-8.06,1.27-16.25,2.21-24.11-1.41-.46-.07-.93-.06-1.38,.04Z" fill="#080806"/><path d="M376.59,335.88c5.4,3.07,8.13,8.07,9.79,13.78,.31,1.06-.46,2.08-.93,3.06-4.29,8.9-10.95,15.73-18.82,21.46-8.93,6.7-18.77,12.08-29.22,16-10.45,3.7-21.58,5.08-32.62,4.06-.74,0-1.46-.29-2-.8-3.79-3.93-6.82-8.24-6.72-14,6.71-1,13.49-1.6,20.13-3.11,20.55-4.66,38.48-13.74,51.91-30.53,2.73-3.37,5.66-6.63,8.48-9.92Z" fill="#faf9f8"/><path d="M306.49,407.43c.44-.08,.89-.08,1.33,0,7.86,3.62,16.05,2.68,24.11,1.41,19.38-3.06,36.55-10.6,49.47-26,3.52-4.29,6.4-9.06,8.57-14.17,.43-1,.75-2.07,1.88-2.55,.79,6.5-.71,12.8-3,18.64-5.58,14.17-14.53,25.61-28.59,32.55-8.31,4.23-17.8,5.55-26.95,3.75-8.78-1.65-16.88-4.79-23.9-10.46-1.16-.86-2.15-1.94-2.92-3.17Z" fill="#faf9f8"/><path d="M299.52,191.29c.06,.37,.06,.77-.33,.92-.24,0-.46-.11-.59-.31-.19-.31-.09-.72,.22-.91,.1-.06,.2-.09,.32-.09l.38,.39Z" fill="#ecbc23"/><path d="M131.45,311.77c-.91,.25-1.45,1.18-1.23,2.1,1.12,7.56-.22,14.94-2.18,22.15-2.48,9.16-7.16,17.32-12.45,25.12-1.37,2-2.76,4-4.13,6-.39,.83-1.19,1.4-2.11,1.5l-3.33-1.09c-12-3.93-24.34-4.92-36.86-4.34,1.54-5.77,4.42-11,6.66-16.49,4.6,.39,9.07,.13,13.09-2.51,1.59-1,3.52-2,2.9-4.37s-3-2.32-4.89-2.69c-1.17-.23-1.57,.95-2.23,1.68-1.49,1.67-3.18,3-5.63,1.9,2.27-5.42,6.37-9.53,10.08-13.91,1.56-1.85,3.27-3.58,4.91-5.36,3.18,1.7,5,5,8,6.9,3.29,2.07,6.46,4.33,9.76,6.39,1.52,1.11,3.59,1.07,5.06-.1,1.66-1.32,1.68-3.41,1.58-5.23-.09-1.6-1.89-1.73-3.14-2.16-6.45-2.22-10.84-7-14.87-12.13,6.31-6,14.22-7.73,22.5-8.06,3.49-.13,6.33,1.93,8.51,4.7Z" fill="#ab282b"/><path d="M69.12,363.22c12.52-.58,24.86,.41,36.86,4.34l3.33,1.09c-.39,2.2-1.81,4.08-3.82,5.06-5.46-.56-10.91-1.34-16.38-1.63-7.47-.41-15-.54-22.31,1.43-4.36-.52-8.35,1.18-12.43,2.19-5.65,1.39-10.44,4.55-15.14,7.82-.52,.36-1,.73-1.54,1.12-1.66,1.25-3.29,2.53-5.13,.25-1.72-2.13-1.85-5.23,0-6.91,4.9-4.34,10.64-7.64,16.86-9.69,5.48-1.9,11.13-3.28,16.87-4.12,.97-.23,1.92-.55,2.83-.95Z" fill="#e7873b"/><path d="M66.84,373.51c7.34-2,14.84-1.84,22.31-1.43,5.47,.29,10.92,1.07,16.38,1.63-2.28,3.63-5.57,6.31-8.72,9.09-5,4.37-11.05,6.62-17.12,8.89-1,.37-2.19,.55-2,2.07-8.71-3.1-10.05-10.55-10.8-18.35-.04-.63-.03-1.26-.05-1.9Z" fill="#ab282b"/><path d="M367,238.87c3.38,3.42,5.86,7.62,7.23,12.23,6.15,18.87-4.15,39.16-23.03,45.31-1.12,.36-2.25,.67-3.4,.93-1.72,.38-2.55,.24-3.14-1.68-1.23-4-4.08-6.65-8.21-7s-7.1,2-8.6,5.83c-.67,1.71-1.59,1-2.56,.59-10.81-5.09-17.8-13.37-20.24-25.12-3.75-18,6-34.93,23.24-41.28,4.49-1.86,9.39-2.55,14.22-2-6.9,2-12,5.29-15.1,11.18-3.07,5.6-3.39,12.29-.89,18.16,4.11,10.02,15.06,15.39,25.5,12.5,12.29-3.41,17.41-13.65,14.98-29.65Z" fill="#080806"/><path d="M233.02,310.77c-1.47,6.12-.35,12.58,3.1,17.85,3.75,5.87,10,7.79,16.33,4.91,6.78-3.09,11.29-8.08,12.5-15.67,.09-.42,.22-.83,.37-1.23,1,0,1.28,.79,1.67,1.36,8.09,11.72,5.93,27.71-4.85,35.68-1.24,.91-2.59,1.68-4,2.29-4.38,1.92-4.4,1.88-7.29-1.77-3.58-4.52-8-4.46-11,.22-.61,.95-1.16,1.32-2.17,.75-8.49-4.79-13.52-12-14.66-21.68-1.06-8.91,1.81-16.45,8.78-22.28,.39-.19,.8-.34,1.22-.43Z" fill="#080806"/></svg>