<?xml version="1.0" encoding="UTF-8"?><svg id="a" xmlns="http://www.w3.org/2000/svg" viewBox="0 0 366.65 801.63"><path d="M48.03,602.5c-.22-1.79-.55-3.58-.66-5.38-.33-5.3,2-10,4.45-14.27,9.87-17.35,20.55-34.23,30.16-51.73,1.45-2.75,2.43-5.72,2.9-8.79,2.69-14.81,6.24-29.46,8.92-44.27,6.87-38,17-75.19,25.71-112.73,2.45-10.59,1.31-21.07,1.94-31.6,.12-2-1-1.41-2.08-1.1-8.48,2.4-17.06,4.62-25.93,4.33-14.83-.5-28.4-4.58-40.42-13.92-7.43-5.66-14.14-12.19-20-19.46-7.09-8.96-11.35-19.84-12.23-31.23-2.06-23,4.71-43.36,19.43-60.79,7.35-8.72,16.51-15.74,26.84-20.56,4.84-2.25,9.85-3.75,15.25-3.32,2.44,.2,2.47-1,1.61-2.57-1.41-2.41-2.53-4.98-3.36-7.65-.49-2.62-2-4.81-3.13-7.15-3.6-7.66-7.7-15.08-11.36-22.71-5.77-12.07-12.19-23.82-17.48-36.12-.85-2-.64-3.12,.75-4.52,3.06-3.08,6.8-5.08,10.63-6.89,8-3.76,16.64-6.01,25.46-6.63,1.94,.03,3.64-1.3,4.07-3.19,1.76-4.63,4.02-9.06,6.74-13.2,2.82-4.52,6.82-7.94,10.77-11.4,2.29-2,2.9-2,4.65,.5,10.93,15.62,22.6,30.7,33.76,46.16,1.65,2.28,3.83,4.34,4.4,7.31-2.09,1.76-4.51,3.12-6.67,5.48,3.24-.69,5.57-2.51,8.29-3.33,1.39,0,1.6,1.29,2.31,2,.92,1,1.83,1.7,3.26,.81,4.04-2.67,8.51-4.61,13.22-5.74,1-.22,2.16-.57,1.94-2.07,1.8,2.44,4.28,2.72,7.14,2.71,20,0,37,7.8,52,20.4,11.49,9.61,20,21.21,23.93,35.85,3.7,13.94,4.31,27.93,0,41.88-2.09,6.74-3,13.83-6.25,20.23-1.54,.21-1,1.13-.72,2,1.38,4.74,3.49,9.17,4.17,14.22,1.74,13,4.39,25.92,5.93,39,1.16,9.8,1.5,19.62,1.94,29.43,.3,6.59-.06,13.21-.33,19.83-.41,10.21-.35,20.43-1.16,30.64-.67,8.55-1.61,17.07-2.93,25.51-1.94,12.38-4.57,24.64-7.48,36.84-7.52,32.44-20.6,63.32-38.67,91.29-7.46,11.76-15.67,23.03-24.59,33.72-4.63,5.55-9.47,10.92-14.13,16.44-5.27,6.24-11.14,11.87-16.76,17.75-6.88,7.19-14.73,13.43-20.86,21.35-.32,.42-.93,.75-.76,1.34s.88,.54,1.39,.51c3.79-.21,7.57,.13,11.39-.3,2.67-.29,5.44-1.23,8.19-.26-5.67,1.64-11.52,2.55-17.41,2.72-6.55,.18-8.52,5.33-11.67,9.31-.71,.9,.29,1.69,.73,2.43,2.15,3.57,5.34,6.38,7.4,10,5.57,9.9,10.62,20,12,31.49,1.09,9.02,.71,18.16-1.1,27.06-1.78,9-.87,18,0,27.09,.92,10.19,4.62,19.38,9.11,28.26,3.66,7.38,5.68,15.47,5.9,23.71,.16,8.38-5.49,15.77-13.62,17.81-7.39,1.89-15,2.72-22.55,3.57-13.26,1.6-26.68,1.34-39.86-.79-2.38-.56-4.71-1.27-7-2.12-2.75-.81-3.19-2.52-3-5,.54-7.34,5-11.89,11-15.14,5.18-2.81,10.6-5.17,15.88-7.81,8.27-4.16,14.83-11.07,18.56-19.54,2.71-5.85,2.23-12,.91-18.17-2.06-8.84-4.79-17.51-8.17-25.94-4.54-11.88-8-24.11-11.66-36.26-3.29-10.85-7.5-21.42-10-32.51-1-4.51-2-9-1.6-13.73,.24-2.89-1.74-1.38-3-1.37-.47-.8-1.33-1.29-2.26-1.28-5.5-.18-10.63-1.89-15.65-3.9-5.31-2.07-10.03-5.43-13.73-9.77-1.4-1.59-2.28-4.02-4.79-4.77Zm86.46-338.25c.95-12.33-2.08-24.64-8.63-35.13-8.85-14.08-21.58-21.87-38.46-21.66-11.72,.15-21.14,6-29.41,13.7-8.52,8-13.81,17.9-16.52,29.2-4.74,19.73-2.26,38.11,10.95,54.14,6.48,7.85,14.77,13.06,25,14.66,5.57,2.31,11.34,1.73,16.77,.1,17.61-5.29,29.4-17.18,36.55-33.87,2.96-6.63,4.25-13.89,3.75-21.14Zm39.57-16.16c2.75,1.32,5.62,.87,8.51,.7,13.39-.81,26-4.14,36.84-12.29,2-1.5,3.63-1.78,5,.05,1.61,2.22,4,3.71,5.37,6,.54,.95,1.53,1.55,2.62,1.61,1-.01,1.99,.24,2.86,.73,.84,.65,1.79,1.07,2.73,.33s.68-1.78,.42-2.77c-.21-.6-.38-1.22-.5-1.84-.54-4-3.6-6.87-4.86-10.55-.45-1.33-1.26-3.29,0-3.93s2,1.36,2.71,2.44c1.39,2,2.63,2.21,4.46,.58,1.95-1.68,3.12-4.1,3.24-6.67-.05-1.63,0-3.27,.17-4.89,2.14-11,1.67-22,1-33.06-.47-7.33-2.57-14.25-7.18-20.2-3.12-6-7.77-10.7-13.06-14.75-31.31-24-77.57-11.78-94.68,18.63-6.86,12.18-9.52,25-6.21,38.77,5.38,22.57,26.24,39.48,50.56,41.09v.02Zm63.07,59.53c-3.62-4.94-8.47-7.56-13.13-10.29-28.48-16.68-62.6-1.21-69,31.18-.29,1.42-.37,2.88-.25,4.33,0,.54,.25,1.12,.92,1.1s.6-.55,.67-1c1.5-9.71,6.39-17.77,13-24.65,12.45-13,27.61-16.69,44.8-11.34,5.55,1.72,10.61,4.66,15.62,7.61,2.3,1.36,4.78,2.38,7.37,3.04v.02Zm11.11-62.87c-.8-4.47-3.8-8.4-6.07-12.67-.25-.52-.86-.76-1.4-.54-.73,.44-1.03,1.34-.73,2.13,.73,2.51,1.31,5.06,1.72,7.64,.15,1.8,.64,3.56,1.44,5.19,.63,1.23,1.42,2.51,3,2.17,1.86-.37,1.95-1.95,2.04-3.92Zm-10.24,8.81c.29,2.85,.5,5.67,2,8.16,.8,1.33,1.72,2.92,3.56,2.09s1.54-2.5,1.17-4.06c-.64-2.73-2.55-4.75-4-7-.53-.83-1.18-1.95-2.26-1.54s-.32,1.56-.45,2.35h-.02Z" fill="#fbc826"/><path d="M153.6,617.19c-2.75-1-5.52,0-8.19,.26-3.82,.43-7.6,.09-11.39,.3-.51,0-1.2,.16-1.39-.51s.44-.92,.76-1.34c6.13-7.92,14-14.16,20.86-21.35,5.62-5.88,11.49-11.51,16.76-17.75,4.66-5.52,9.5-10.89,14.13-16.44,8.92-10.69,17.13-21.96,24.59-33.72,18.07-27.97,31.15-58.85,38.67-91.29,2.91-12.2,5.54-24.46,7.48-36.84,1.32-8.44,2.26-17,2.93-25.51,.81-10.21,.75-20.43,1.16-30.64,.27-6.62,.63-13.24,.33-19.83-.44-9.81-.78-19.63-1.94-29.43-1.54-13.08-4.19-26-5.93-39-.68-5.05-2.79-9.48-4.17-14.22-.25-.88-.82-1.8,.72-2,11.48,21.2,18.15,44.19,25.06,67.1,4.48,14.84,8.87,29.71,11.75,45,1.74,9.19,2.76,18.46,3.86,27.73,1.69,14.16,3.09,28.31,2.89,42.58,0,2.72-.31,5.43-.48,8.15-.48,7.12-1.58,14.2-1.16,21.37,.22,4.25-.02,8.52-.72,12.72-1.45,9.81-3.6,19.5-6.44,29-1.36,4.38-2.26,9-4.82,12.9-.34-.06-.76-.55-1,0-.17,.31-.06,.7,.24,.87,.08,.04,.16,.07,.25,.08,.38,.49,.56,1.1,.51,1.72-.38,.49-.72,1.01-1,1.57-3.8,9.57-7.46,19.21-12.75,28.07-7.07,11.84-14.38,23.52-24.38,33.22-22.39,24-49.7,39.25-81.75,46.1-.18,.02-.36,.02-.54,0-.25-.38-.42-.25-.55,.1-.47,.35-1.05,.5-1.63,.42-.23-.3-.41-.21-.55,.09l-2.17,.52Z" fill="#ecbd25"/><path d="M240.79,569.98c10-9.7,17.31-21.38,24.38-33.22,5.29-8.86,9-18.5,12.75-28.07,.28-.56,.62-1.08,1-1.57,1.95,5.84,3.81,11.72,5.87,17.52,8.43,23.88,14.94,48.39,19.49,73.3,1.64,8.46,2.78,17.01,3.42,25.61,.75,11.08-1,21.81-4.36,32.43-5.51,17.46-13.07,34-20.84,50.54-5.59,11.52-10.09,23.54-13.42,35.91-.52,2-.6,3.22,1.86,3.62,1.16,.24,2.24,.78,3.13,1.57,7.43,6.3,13.67,13.52,17,22.85,1.4,3.42,1.15,7.3-.68,10.51-1.33,2.29-3.3,3.86-6,3.57-17.23-1.85-32.6-7.27-43.62-21.84-6.32-8.34-5.31-17.16-.47-24.08,6.71-9.59,9.84-20.33,12.88-31.21,4.06-14.53,5.82-29.55,9.29-44.21,2.51-10.6,4.77-21.27,9.87-31,.35-.68,.65-1.23-.08-1.92-6.82-6.51-10.72-15-15.48-22.92-6.76-11.27-12.37-23-15.42-35.87-.14-.52-.33-1.03-.57-1.52Z" fill="#fbc827"/><path d="M35.31,97.6l-.82-1.43c-.09-.51-.17-1-.75-1.25-.26-.48-.52-1-.79-1.44l-.22-.34c-.35-.75-.91-1.39-1.61-1.83v-.23c-.07-.06-.16-.08-.25-.06-4.23,1.63-8.48,3.18-12.65,4.94-2.13,.89-3.39,.44-4.35-1.63-1.34-2.88-2.81-5.69-4.24-8.52-1.57-3.03-1.74-6.59-.44-9.75,6.72-17.83,13.41-35.67,20.53-53.35,.49-1.58,1.79-2.77,3.41-3.12,3.44-.82,6.82-1.86,10.25-2.74,16-4.11,32-8.21,48-12.29,5.36-1.36,10.74-2.67,16.15-3.8,2.85-.6,3.47,.32,2.37,3-.71,1.74-1.48,3.45-2.22,5.18l-1,2c-.84,1-1.44,2.19-1.74,3.47-.33,.65-.67,1.3-1,1.94-2.89,4.3-4.74,9.16-7.18,13.71-.2,.37-.46,1,.25,1.32,.28,.33,.57,.65,.85,1,.16,.63,.67,1.11,1.3,1.25l7.37,6.88c-.08,.28,0,.38,.29,.29l2,2.41c-.09,.35,.11,.7,.46,.8,.06,.02,.13,.02,.19,.02l4.23,5.65c-.13,.28-.08,.43,.27,.33l.84,1.28c-.16,.27-.11,.41,.23,.36,.29,.47,.59,.93,.87,1.39,0,.62,.12,1.16,.82,1.35,.19,.48,.38,1,.56,1.43,.61,1.2-.26,1.44-1.08,2-2.8,1.82-5.58,3.69-8.23,5.71-8.91,6.57-15.62,15.68-19.25,26.14-.48,1.72-2.08,2.89-3.87,2.82-8.08,.5-16,2.45-23.39,5.75-6,2.55-11.87,5.46-15.53,11.31-.55,.17-1.14,.1-1.63-.2,.03-.41-.27-.76-.68-.8-.06,0-.11,0-.17,0-.25-.27-.51-.53-.77-.79,.08-.27,0-.39-.29-.33-.46-.62-.92-1.23-1.37-1.85,.06-.27,0-.43-.32-.3l-1.32-1.88c.07-.26,0-.41-.29-.32l-3.52-5.13c.09-.29,.04-.43-.27-.36Z" fill="#393838"/><path d="M278.92,504.41c2.56-3.94,3.46-8.52,4.82-12.9,2.84-9.5,4.99-19.19,6.44-29,.7-4.2,.94-8.47,.72-12.72-.42-7.17,.68-14.25,1.16-21.37,5.26,13.36,8.65,27.29,12.43,41.1,3.56,13,7.42,26,10.42,39.16,.37,1.66,1,2.25,2.85,2.32,3.81,.13,7.17,1.85,10.2,4.09,4.74,3.54,9.01,7.65,12.73,12.25,6.37,7.76,13.19,15,22.13,19.88,1.93,1.06,4.15,2.31,3.8,5.13s-2.34,4.61-4.88,5.71c-2.2,.88-4.63,1.04-6.93,.46l-3.46-.71c-1.59-.33-2.4-.11-1.86,1.89,.54,2.13,.42,4.38-.34,6.44-1.55,4.56-6,6.51-10.13,4.28-1.38-.74-1.85-.11-2.65,.74-2.94,2.83-7.34,3.51-11,1.7-1-.53-1.34-.29-2.06,.28-3.35,2.72-8.1,2.89-11.64,.42-.6-.39-1.14-1.11-1.9-.93-4.18,1-6.13-1.92-8.12-4.62-3.68-5.11-5.91-11.13-6.44-17.41-.7-6.49-1.39-13-2.16-19.47-.86-8.39-4.59-16.23-10.57-22.18-1.08-1.09-2-2.3-3-3.45l-.56-1.09Z" fill="#ffd00a"/><path d="M45.93,109.51c3.66-5.85,9.54-8.76,15.53-11.31,7.39-3.3,15.31-5.25,23.39-5.75,1.79,.07,3.39-1.1,3.87-2.82,3.63-10.46,10.34-19.57,19.25-26.14,2.65-2,5.43-3.89,8.23-5.71,.82-.53,1.69-.77,1.08-2,3.36,8.38,10.92,13.13,16.92,19.09,11.24,11.19,21.3,23.42,32.15,34.94,.73,.79,1.54,1.49,2.43,2.1-6.54,2.02-12.89,4.59-19,7.68-.57-3-2.75-5-4.4-7.31-11.14-15.43-22.81-30.51-33.74-46.13-1.75-2.5-2.36-2.51-4.65-.5-4,3.46-8,6.88-10.77,11.4-2.72,4.14-4.98,8.57-6.73,13.2-.43,1.89-2.13,3.22-4.07,3.19-8.82,.62-17.46,2.87-25.46,6.63-3.83,1.81-7.57,3.81-10.63,6.89-1.39,1.4-1.6,2.53-.75,4.52,5.29,12.3,11.71,24,17.48,36.12,3.66,7.63,7.76,15.05,11.36,22.71,1.1,2.34,2.64,4.53,3.13,7.15-2-1.51-2.47-3.94-3.49-6-9.33-18.71-18.59-37.45-27.76-56.2-.98-2.01-1.41-4.32-3.37-5.75Z" fill="#e9bb2a"/><path d="M15.68,98.25l.61,1.48,.38,.64,1.93,3.57c.42,1.12,1.39,1.94,2.56,2.18,2.68,.41,4,2.21,4.57,4.73,.02,.45,.08,.9,.17,1.34,4.24,11,7.22,22.59,14.87,32,2.1,2.59,2,2.75-1.07,4.16-1.81,.85-3.61,1.7-5.44,2.47-1.41,.6-2.34,.28-2.86-1.37-1.67-5.28-3.49-10.55-6.56-15.18-3.1-4.9-5.87-9.99-8.3-15.25-.83-1.71-.56-2.94,1-3.94,.8-1.13,0-1.82-.69-2.56-.39-.32-.59-.83-.51-1.33-.25-1.54-.06-3.12,.54-4.56l-1.64-4.26-.4-.66c-.43-.35-.69-.87-.69-1.42-.25-.89-1.1-1.87-.27-2.68,.67-.65,1.15,.52,1.8,.64Z" fill="#ffd32b"/><path d="M149.8,119.62c6.11-3.09,12.46-5.66,19-7.68,11.08-2.53,22-1.79,33,1,14.91,3.81,28.8,9.78,41.1,19.17,2.23,1.58,4.01,3.73,5.13,6.23-2.92-1.14-5.69-2.64-8.23-4.47-13.5-9.42-28.76-16.01-44.88-19.37-7.86-1.59-15.69-.94-23.46,.82-6.92,1.27-13.64,3.44-20,6.45-2.72,.82-5,2.64-8.29,3.33,2.12-2.36,4.54-3.72,6.63-5.48Z" fill="#201e1c"/><path d="M10.97,274.96c-.47-3.86,.47-7.38,1.16-10.85,2.69-13.89,6.88-27.44,12.5-40.42,5.35-12.18,13.31-23.03,23.31-31.8,4.91-4.34,10.63-7.66,16.83-9.76,1.19-.41,2.46-.52,3.7-.31-1.52,1.31-3.15,2.51-4.86,3.57-21.57,11.26-34.06,29.74-41.83,52.11-4.15,11.92-6.91,24.19-9.82,36.43-.09,.32-.09,.71-.99,1.03Z" fill="#201e1c"/><path d="M15.68,98.25c-.65-.15-1.13-1.32-1.78-.67-.83,.81,0,1.79,.27,2.68-1-.17-1.28-1.27-2.12-1.64,.17-.88,.04-1.78-.36-2.58-1.59-3-3.47-5.85-4.65-9-.31-.66-.9-1.15-1.61-1.32-.33-3.26-.92-6.54,2.48-8.81,.64-.43,.84-1.56,1.17-2.4,6.66-17.26,13.34-34.5,19.92-51.78,.62-2.01,2.29-3.53,4.36-3.94,11.87-2.95,23.73-6,35.59-9,11.6-2.94,23.19-5.91,34.79-8.83,1.66-.44,3.36-.76,5.07-.94,1.87-.17,2.88,.75,2.08,2.65-.91,2.17-1.59,4.48-3.22,6.28,.74-1.73,1.51-3.44,2.22-5.18,1.1-2.71,.48-3.63-2.37-3-5.41,1.13-10.79,2.44-16.15,3.8-16,4.06-32,8.16-48,12.29-3.43,.88-6.81,1.92-10.25,2.74-1.62,.35-2.92,1.54-3.41,3.12-7.1,17.67-13.79,35.53-20.47,53.34-1.3,3.16-1.13,6.72,.44,9.75,1.43,2.83,2.9,5.64,4.24,8.52,1,2.07,2.22,2.52,4.35,1.63,4.17-1.76,8.42-3.31,12.65-4.94,.09-.02,.18,0,.25,.06v.23c-5.17,2.4-10.83,3.58-15.49,6.94Z" fill="#e9bb2a"/><path d="M48.03,602.5c2.51,.73,3.39,3.18,4.85,4.89,3.7,4.34,8.42,7.7,13.73,9.77,5,2,10.15,3.72,15.65,3.9,.93,0,1.79,.48,2.26,1.28-1.59,.54-2.49,1.9-3.54,3.06s-2,2.14-3.43,1.88c-2.31-.4-4.48-.78-6.73,.35-.9,.32-1.89-.15-2.21-1.05l-.02-.05c-.74-2.09-2.35-2.39-4.24-2.58-2.81-.23-5.15-2.25-5.79-5-.46-1.56-1.63-2.81-3.15-3.37-5.66-2.67-7.86-6.67-7.38-13.08Z" fill="#ffd00a"/><path d="M5.43,85.7c.71,.17,1.3,.66,1.61,1.32,1.18,3.2,3.06,6.06,4.65,9,.4,.8,.53,1.7,.36,2.58-3.06,1.33-6.25,2.3-9.53,2.91-2.27,.32-3-.35-2.21-2.5,1.6-4.45,3.4-8.86,5.12-13.31Z" fill="#4d4943"/><path d="M151.42,121.77c6.36-3.01,13.08-5.18,20-6.45l.73,1.48c.22,1.5-.89,1.85-1.94,2.07-4.71,1.13-9.18,3.07-13.22,5.74-1.43,.89-2.34,.17-3.26-.81-.71-.74-.92-2.06-2.31-2.03Z" fill="#e9bb2a"/><path d="M97,31.4c-.71-.32-.45-.95-.25-1.32,2.44-4.55,4.29-9.41,7.18-13.71-1.49,4.33-4,8.19-5.89,12.3-.43,.9-.67,1.83-1.04,2.73Z" fill="#e9bb2a"/><path d="M16.88,106.68c-.6,1.44-.79,3.02-.54,4.56-1.36-1.7-1.22-3.22,.54-4.56Z" fill="#e9bb2a"/><path d="M104.94,14.43c.3-1.28,.9-2.47,1.74-3.47-.12,1.34-.74,2.58-1.74,3.47Z" fill="#e9bb2a"/><path d="M16.85,112.57c.65,.74,1.49,1.43,.69,2.56-.25-.88-.93-1.58-.69-2.56Z" fill="#e9bb2a"/><path d="M99.15,33.62c-.63-.14-1.14-.62-1.3-1.25,.66,.09,1.18,.6,1.3,1.25Z" fill="#e9bb2a"/><path d="M33.74,94.92c.58,.23,.66,.74,.75,1.25-.58-.22-.93-.58-.75-1.25Z" fill="#e9bb2a"/><path d="M116.72,54.38c-.7-.19-.84-.73-.82-1.35,.54,.22,.87,.77,.82,1.35Z" fill="#e9bb2a"/><path d="M109.46,44.02c-.36,.01-.66-.27-.67-.63,0-.07,0-.13,.02-.19,.48,.05,.78,.28,.65,.82Z" fill="#e9bb2a"/><path d="M43.45,108.52c.4-.06,.78,.22,.84,.62,0,.06,.01,.11,0,.17-.59,.06-.85-.23-.85-.79Z" fill="#e9bb2a"/><path d="M278.92,504.41l.54,1.07-1.06-.08c-.35-.04-.61-.35-.57-.7,0-.09,.04-.17,.08-.25,.25-.59,.67-.1,1.01-.04Z" fill="#fbc827"/><path d="M42.39,107.4c.28-.06,.37,.06,.29,.33-.36,.12-.44,0-.29-.33Z" fill="#e9bb2a"/><path d="M40.7,105.25c.32-.13,.38,0,.32,.3-.34,.16-.41,.02-.32-.3Z" fill="#e9bb2a"/><path d="M39.09,103.05c.32-.09,.36,.06,.29,.32-.34,.11-.4-.03-.29-.32Z" fill="#e9bb2a"/><path d="M14.86,101.71l.4,.66-.64-.25,.24-.41Z" fill="#e9bb2a"/><path d="M16.67,100.4l-.38-.64,.61,.24-.23,.4Z" fill="#e9bb2a"/><path d="M35.31,97.6c.31-.07,.36,.07,.26,.32-.33,.1-.42-.02-.26-.32Z" fill="#e9bb2a"/><path d="M32.73,93.14l.22,.34h-.34l.12-.34Z" fill="#e9bb2a"/><path d="M115.03,51.64c-.34,0-.39-.09-.23-.36,.37-.03,.44,.09,.23,.36Z" fill="#e9bb2a"/><path d="M113.96,50c-.35,.1-.4,0-.27-.33,.34-.1,.39,.04,.27,.33Z" fill="#e9bb2a"/><path d="M106.81,40.79c-.28,.09-.37,0-.29-.29,.35-.15,.45-.06,.29,.29Z" fill="#e9bb2a"/><path d="M157.95,616.18c.13-.35,.3-.48,.55-.1l-.55,.1Z" fill="#fbc826"/><path d="M155.77,616.69c.14-.3,.32-.39,.55-.09l-.55,.09Z" fill="#fbc826"/><path d="M174.06,248.07c-24.32-1.61-45.18-18.52-50.61-41.08-3.31-13.77-.65-26.59,6.21-38.77,17.11-30.41,63.37-42.58,94.68-18.63,5.29,4,9.94,8.75,13.06,14.75-1,.12-2.01,.08-3-.13-3.09-1.25-5-.06-6.39,2.64-.7,1.35-1.82,1.52-3.22,1.19-4.81-1.1-7.89,1.2-8.73,6.1-.32,1.93,.19,3.77,0,5.64-1.57-1.94-2.47-4.48-5.28-6.07,5,10.77,.54,23.56-10.08,28.87-10.45,5.18-23.12,.96-28.37-9.46-2.57-4.89-3.05-10.61-1.31-15.85,2.66-8.09,8.44-12.76,16.62-14.79-4.49-.37-9.02,.2-13.28,1.67-17.6,6.07-27.84,23.09-24,41.41,2.45,11.81,9.55,20.13,20.53,25.09,.78,.36,1.58,1.16,2.24-.54,2.56-6.6,8.55-7.92,14-3.23-1.34,.76-2.61,1.53-3,3.23-.33,1.32-1.42,1.69-2.7,1.79-3.3,.28-4.44,1.59-4.15,4.91,.24,1.26-.32,2.53-1.41,3.21-3.58,2.44-3.98,4.23-1.81,8.05Z" fill="#fefefd"/><path d="M77.46,319.14c-10.27-1.6-18.56-6.81-25-14.66-13.21-16-15.69-34.41-10.95-54.14,2.71-11.3,8-21.23,16.52-29.2,8.27-7.74,17.69-13.55,29.41-13.7,16.88-.21,29.61,7.58,38.46,21.66,6.55,10.49,9.58,22.8,8.63,35.13-1.76-.23-3.79-1.22-5.18,.28-2.7,2.9-7.28,3.1-9.33,6.8,2-8.93,0-16.88-5.82-24.52-1.46,8.89-5.12,14.08-11.91,17.41-7.08,3.46-13.73,1.33-17.64-5.47-3-5.27-3.58-10.86-2.48-16.77-.41,.07-.63,0-.75,.13-7.18,5.64-10.15,13.15-9.22,22.07,1,9.91,6.19,17.26,14.92,22.07,1,.53,1.33,.09,1.83-.79,2.49-4.4,6.76-4.83,10.28-1.22,1.23,1.26,1.73,3,2.85,4.26-1.65,2.15-3.34,4.26-4.92,6.45-1.43,2.16-3.76,3.56-6.34,3.81-3.11,.23-5,1.95-6.62,4.21-1.69,2.48-3.92,4.53-6.53,6-2.83,1.6-3.49,3.88-2.16,7,.56,1.11,1.22,2.18,1.95,3.19Z" fill="#fefefd"/><path d="M174.06,248.07c-2.17-3.79-1.77-5.61,1.84-8,1.09-.68,1.65-1.95,1.41-3.21-.29-3.32,.85-4.63,4.15-4.91,1.28-.1,2.37-.47,2.7-1.79,.42-1.7,1.69-2.47,3-3.24,1.14,.53,1.53,1.74,2.34,2.55s.43,3,1.88,3.14,2.78-.65,4.16-1c.53-.15,1.05-.3,1.56-.47,20.55-6.65,26.37-30,21.48-43-1-2.7-1.68-5.52-2.51-8.29,.2-1.87-.31-3.71,0-5.64,.84-4.9,3.92-7.2,8.73-6.1,1.4,.33,2.52,.16,3.22-1.19,1.39-2.7,3.3-3.89,6.39-2.64,.99,.21,2,.25,3,.13,4.61,5.95,6.71,12.87,7.18,20.2,.71,11,1.18,22.09-1,33.06-.16,1.62-.22,3.26-.17,4.89-.12,2.57-1.29,4.99-3.24,6.67-1.83,1.63-3.07,1.45-4.46-.58-.73-1.08-1.34-3.12-2.71-2.44s-.48,2.6,0,3.93c1.26,3.68,4.32,6.53,4.86,10.55,.12,.62,.29,1.24,.5,1.84,.26,1,.5,2-.42,2.77s-1.89,.32-2.73-.33c-.87-.49-1.86-.74-2.86-.73-1.09-.06-2.08-.66-2.62-1.61-1.4-2.32-3.76-3.81-5.37-6-1.33-1.83-3-1.55-5-.05-10.88,8.15-23.45,11.48-36.84,12.29-2.85,.07-5.72,.52-8.47-.8Z" fill="#2bb5ce"/><path d="M119.98,271.31c2-3.7,6.63-3.9,9.33-6.8,1.39-1.5,3.42-.51,5.18-.28,.51,7.24-.76,14.5-3.71,21.14-7.15,16.69-18.94,28.58-36.55,33.87-5.43,1.63-11.2,2.21-16.77-.1-.75-1.02-1.42-2.1-2-3.23-1.33-3.08-.67-5.36,2.16-7,2.61-1.47,4.84-3.52,6.53-6,1.59-2.26,3.51-4,6.62-4.21,2.58-.25,4.91-1.65,6.34-3.81,1.58-2.19,3.27-4.3,4.92-6.45,8.54-3.01,14.86-8.39,17.95-17.13Z" fill="#2bb5ce"/><path d="M237.13,307.6c-2.6-.66-5.09-1.69-7.39-3.06-5-3-10.07-5.89-15.62-7.61-17.19-5.35-32.35-1.67-44.8,11.34-6.59,6.88-11.48,14.94-13,24.65-.07,.45-.09,1-.67,1s-.88-.56-.92-1.1c-.12-1.45-.04-2.91,.25-4.33,6.4-32.39,40.52-47.86,69-31.18,4.68,2.73,9.53,5.35,13.15,10.29Z" fill="#1e1903"/><path d="M248.24,244.75c-.11,2-.2,3.55-2,3.92-1.63,.34-2.42-.94-3-2.17-.8-1.63-1.29-3.39-1.44-5.19-.41-2.58-.99-5.13-1.72-7.64-.3-.79,0-1.69,.73-2.13,.54-.22,1.15,.02,1.4,.54,2.25,4.27,5.25,8.17,6.03,12.67Z" fill="#3ab6c6"/><path d="M238.02,253.56c.13-.79-.49-2,.47-2.39s1.73,.71,2.26,1.54c1.45,2.29,3.36,4.31,4,7,.37,1.56,.54,3.3-1.17,4.06s-2.76-.76-3.56-2.09c-1.5-2.43-1.71-5.27-2-8.12Z" fill="#3ab6c6"/><path d="M216.1,179.78c.83,2.77,1.49,5.59,2.51,8.29,4.89,13-.93,36.33-21.48,43-.51,.17-1,.32-1.56,.47-1.38,.39-2.81,1.16-4.16,1s-.94-2.2-1.88-3.14-1.2-2-2.34-2.55c-5.5-4.68-11.49-3.36-14,3.24-.66,1.7-1.46,.9-2.24,.54-11-5-18.08-13.28-20.53-25.09-3.81-18.32,6.43-35.34,24-41.41,4.26-1.47,8.79-2.04,13.28-1.67-8.18,2-14,6.7-16.62,14.79-1.74,5.24-1.26,10.96,1.31,15.85,5.25,10.42,17.92,14.64,28.37,9.46,10.62-5.31,15.08-18.1,10.08-28.87,2.79,1.61,3.69,4.15,5.26,6.09Z" fill="#07090a"/><path d="M119.98,271.31c-3.09,8.74-9.41,14.12-17.94,17.17-1.12-1.3-1.62-3-2.85-4.26-3.52-3.61-7.79-3.18-10.28,1.22-.5,.88-.86,1.32-1.83,.79-8.73-4.81-13.88-12.16-14.92-22.07-.93-8.92,2-16.43,9.22-22.07,.12-.09,.34-.06,.75-.13-1.1,5.91-.56,11.5,2.48,16.77,3.91,6.8,10.56,8.93,17.64,5.47,6.79-3.33,10.45-8.52,11.91-17.41,5.8,7.64,7.8,15.59,5.82,24.52Z" fill="#0d0f0f"/></svg>