<svg width="915" height="580" viewBox="0 0 915 580" fill="none" xmlns="http://www.w3.org/2000/svg">
<path d="M398.539 109.44C317.86 110.456 288.607 57.1959 235.45 70.5498C203.209 78.5935 184.416 106.395 178.046 115.766C174.272 121.311 152.804 153.954 157.994 194.484C164.757 247.197 208.242 247.822 222.711 297.646C239.696 356.216 187.482 383.002 204.468 441.494C218.701 490.458 268.084 515.761 287.349 525.6C338.934 551.996 400.584 548.247 453.191 536.455C503.596 525.132 521.525 503.422 562.415 486.944C590.488 475.621 604.171 474.293 611.72 473.122C652.531 466.64 671.954 475.542 706.947 475.777C718.664 475.855 765.294 476.167 802.174 455.004C859.971 421.892 893.234 336.38 873.261 273.124C859.578 229.86 833.943 236.42 786.683 162.778C748.781 103.74 757.195 86.2466 725.662 60.5539C689.804 31.425 639.792 21.5853 598.902 28.5356C570.358 33.3774 547.711 46.1066 519.795 61.8815C487.869 79.843 471.827 108.503 398.539 109.44Z" fill="#B7294F"/>
<path d="M27.2078 291.367C42.2343 291.367 54.4156 279.269 54.4156 264.346C54.4156 249.424 42.2343 237.326 27.2078 237.326C12.1813 237.326 0 249.424 0 264.346C0 279.269 12.1813 291.367 27.2078 291.367Z" fill="#B7294F"/>
<path d="M135.646 344.782C142.898 344.782 148.778 338.944 148.778 331.741C148.778 324.538 142.898 318.699 135.646 318.699C128.393 318.699 122.514 324.538 122.514 331.741C122.514 338.944 128.393 344.782 135.646 344.782Z" fill="#B7294F"/>
<path d="M157.192 580C176.344 580 191.87 564.581 191.87 545.56C191.87 526.54 176.344 511.121 157.192 511.121C138.04 511.121 122.514 526.54 122.514 545.56C122.514 564.581 138.04 580 157.192 580Z" fill="#B7294F"/>
<path d="M874.974 213.819C897.08 213.819 915 196.023 915 174.07C915 152.117 897.08 134.32 874.974 134.32C852.869 134.32 834.949 152.117 834.949 174.07C834.949 196.023 852.869 213.819 874.974 213.819Z" fill="#B7294F"/>
<path d="M855.001 92.3063C866.032 92.3063 874.975 85.0688 874.975 76.1409C874.975 67.2131 866.032 59.9756 855.001 59.9756C843.97 59.9756 835.028 67.2131 835.028 76.1409C835.028 85.0688 843.97 92.3063 855.001 92.3063Z" fill="#B7294F"/>
<path d="M734.611 541.578C743.079 541.578 749.945 534.76 749.945 526.349C749.945 517.939 743.079 511.121 734.611 511.121C726.142 511.121 719.277 517.939 719.277 526.349C719.277 534.76 726.142 541.578 734.611 541.578Z" fill="#B7294F"/>
<path d="M554.74 36.548C558.692 36.548 561.896 33.3663 561.896 29.4415C561.896 25.5167 558.692 22.335 554.74 22.335C550.788 22.335 547.584 25.5167 547.584 29.4415C547.584 33.3663 550.788 36.548 554.74 36.548Z" fill="#B7294F"/>
<path d="M591.07 22.3347C597.28 22.3347 602.315 17.3349 602.315 11.1674C602.315 4.9998 597.28 0 591.07 0C584.86 0 579.825 4.9998 579.825 11.1674C579.825 17.3349 584.86 22.3347 591.07 22.3347Z" fill="#B7294F"/>
<path d="M467.487 249.431C470.491 251.383 477.363 254.944 509.596 250.141C521.926 248.306 528.146 247.338 530.945 245.05C541.561 236.35 539.776 218.724 537.983 200.989C536.23 183.668 535.082 172.407 527.124 168.292C515.824 162.45 498.933 175.281 492.524 180.138C470.011 197.233 461.196 222.223 457.563 238.029C459.786 242.642 463.213 246.579 467.487 249.431Z" fill="#FEFEFD"/>
<path d="M367.109 545.241C366.765 540.803 367.008 536.34 367.832 531.965C368.8 526.834 370.074 522.797 371.568 520.251C379.856 505.983 388.82 492.098 396.888 477.706C398.108 475.451 398.93 473.005 399.318 470.474C401.575 458.299 404.555 446.265 406.812 434.067C412.576 402.83 421.076 372.225 428.389 341.355C430.45 332.647 429.49 324.026 430.017 315.365C430.119 313.717 429.184 314.209 428.272 314.459C421.155 316.435 413.952 318.262 406.505 318.02C394.057 317.614 382.663 314.256 372.574 306.572C366.364 301.917 360.74 296.537 355.825 290.547C349.886 283.202 346.307 274.253 345.555 264.862C343.833 245.948 349.487 229.197 361.872 214.882C368.045 207.689 375.718 201.915 384.362 197.959C388.427 196.109 392.626 194.875 397.163 195.226C399.208 195.39 399.239 194.406 398.516 193.11C397.338 191.141 396.391 189.045 395.693 186.862C395.284 184.707 394.018 182.903 393.066 180.982C390.047 174.68 386.603 168.573 383.528 162.302C378.684 152.376 373.305 142.708 368.855 132.626C368.147 130.979 368.32 130.057 369.484 128.909C372.055 126.379 375.193 124.731 378.409 123.24C385.138 120.138 392.382 118.285 399.782 117.773C400.568 117.788 401.335 117.536 401.957 117.058C402.579 116.581 403.018 115.908 403.203 115.149C404.675 111.333 406.572 107.693 408.856 104.294C411.215 100.577 414.581 97.7654 417.899 94.9228C419.818 93.2829 420.329 93.2829 421.831 95.3367C431.008 108.183 440.806 120.584 450.14 133.298C451.524 135.172 453.356 136.867 453.836 139.311C452.082 140.764 450.046 141.88 448.237 143.817C450.958 143.255 452.908 141.755 455.196 141.084C456.36 141.084 456.541 142.138 457.131 142.724C457.917 143.552 458.703 144.122 459.867 143.395C463.267 141.207 467.024 139.621 470.971 138.71C471.804 138.53 472.779 138.241 472.598 137.007C474.108 139.014 476.192 139.249 478.59 139.233C495.379 139.233 509.651 145.652 522.241 156.015C531.889 163.84 539.045 173.36 542.332 185.394C545.477 196.858 545.949 208.369 542.332 219.841C540.578 225.386 539.816 231.212 537.087 236.475C535.79 236.655 536.246 237.404 536.482 238.123C537.637 242.027 539.407 245.667 539.981 249.837C541.443 260.528 543.669 271.149 544.958 281.91C545.933 289.969 546.217 298.044 546.586 306.119C546.838 311.538 546.539 316.982 546.311 322.432C545.965 330.828 546.012 339.23 545.336 347.625C544.77 354.654 543.983 361.682 542.875 368.609C541.247 378.761 539.037 388.874 536.584 398.909C530.252 425.623 519.267 451.032 504.123 473.988C497.859 483.671 490.961 492.935 483.473 501.719C479.589 506.288 475.531 510.7 471.615 515.245C467.047 520.548 462.423 523.281 457.547 529.841C455.964 531.969 454.504 534.185 453.175 536.479C449.613 537.26 444.337 538.423 437.92 539.603C422.113 542.578 406.117 544.456 390.047 545.225C384.354 545.436 376.506 545.585 367.109 545.241ZM440.963 258.201C441.757 248.045 439.216 237.907 433.721 229.306C426.29 217.725 415.588 211.321 401.433 211.477C391.596 211.602 383.693 216.413 376.75 222.746C369.594 229.322 365.151 237.467 362.878 246.76C358.899 262.988 360.983 278.099 372.071 291.273C377.512 297.724 384.472 302.011 393.059 303.331C397.777 305.229 402.581 304.752 407.134 303.409C421.918 299.059 431.818 289.282 437.802 275.553C440.288 270.119 441.375 264.156 440.963 258.201ZM474.187 244.925C474.187 244.925 493.971 248.353 512.309 238.209C516.775 235.868 520.772 232.738 524.104 228.97C527.414 225.121 529.988 220.704 531.701 215.936C534.321 208.464 534.913 200.437 533.415 192.665C532.413 186.817 530.373 181.193 527.391 176.054C524.773 171.119 520.865 167.253 516.382 163.918C490.102 144.184 451.272 154.235 436.906 179.24C432.974 186.074 430.693 193.149 430.513 200.544C430.493 204.105 430.889 207.656 431.692 211.126C435.718 226.776 454.064 241.403 474.187 244.894V244.925ZM527.124 293.897C524.089 289.836 520.047 287.65 516.115 285.44C492.202 271.719 463.563 284.44 458.192 311.078C457.949 312.248 457.878 313.448 457.98 314.639C457.971 314.789 458 314.94 458.064 315.076C458.129 315.213 458.227 315.331 458.35 315.42C458.523 315.537 458.743 315.552 458.751 315.521C457.94 315.086 457.105 314.697 456.25 314.358C455.33 313.936 454.496 313.53 454.386 313.475C452.389 312.437 450.95 302.066 456.085 293.772C460.803 286.072 469.115 283.62 478.103 280.973C486.824 278.603 495.941 278.029 504.894 279.286C509.989 279.973 526.912 282.222 528.154 289.383C528.36 290.952 527.995 292.542 527.124 293.866V293.897ZM536.458 242.191C535.782 238.513 533.265 235.288 531.362 231.774C531.258 231.566 531.079 231.404 530.861 231.321C530.642 231.239 530.4 231.242 530.183 231.329C529.89 231.503 529.669 231.773 529.557 232.093C529.445 232.413 529.449 232.761 529.569 233.078C530.185 235.141 530.668 237.241 531.016 239.364C531.143 240.848 531.551 242.295 532.219 243.628C532.754 244.644 533.415 245.698 534.744 245.417C536.301 245.057 536.379 243.785 536.458 242.16V242.191ZM527.855 249.439C528.099 251.781 528.28 254.124 529.538 256.147C530.206 257.24 530.977 258.552 532.526 257.865C534.075 257.178 533.816 255.811 533.509 254.53C532.966 252.281 531.37 250.626 530.151 248.775C529.703 248.088 529.161 247.166 528.256 247.502C527.352 247.838 527.981 248.79 527.871 249.439H527.855Z" fill="#FBC826"/>
<path d="M453.191 536.455C454.516 534.171 455.973 531.965 457.555 529.848C462.446 523.288 467.062 520.547 471.623 515.253C475.555 510.708 479.597 506.295 483.481 501.727C490.968 492.944 497.864 483.68 504.123 473.996C519.274 451.037 530.262 425.622 536.592 398.901C539.029 388.866 541.239 378.784 542.882 368.601C543.991 361.658 544.777 354.622 545.344 347.625C546.02 339.222 545.973 330.819 546.319 322.424C546.547 316.958 546.846 311.538 546.594 306.111C546.224 298.043 545.941 289.969 544.966 281.902C543.669 271.148 541.451 260.52 539.989 249.829C539.415 245.674 537.63 242.019 536.489 238.115C536.277 237.396 535.797 236.639 537.095 236.475C546.728 253.905 552.326 272.811 558.13 291.655C561.889 303.861 565.577 316.091 567.991 328.664C569.453 336.223 570.35 343.845 571.23 351.475C572.654 363.119 573.825 374.755 573.66 386.492C573.66 388.726 573.401 390.959 573.251 393.193C572.85 399.05 571.93 404.907 572.284 410.771C572.468 414.268 572.265 417.775 571.679 421.228C570.458 429.3 568.65 437.273 566.268 445.086C565.128 448.686 564.373 452.481 562.227 455.691C561.936 455.644 561.59 455.238 561.385 455.691C561.349 455.751 561.326 455.817 561.317 455.887C561.308 455.956 561.313 456.026 561.332 456.093C561.351 456.161 561.384 456.223 561.428 456.278C561.473 456.332 561.528 456.377 561.59 456.409C561.654 456.442 561.723 456.463 561.794 456.472C562.113 456.872 562.267 457.377 562.227 457.885C561.904 458.289 561.622 458.723 561.385 459.181C558.334 465.101 555.197 470.302 550.683 482.266C549.386 485.702 547.742 490.177 545.91 495.472C530.983 504.707 515.567 513.137 499.727 520.727C487.256 526.662 477.434 530.614 465.584 533.706C460.512 535.041 456.234 535.901 453.191 536.455Z" fill="#ECBD25"/>
<path d="M357.712 121.139L357.02 119.967L356.391 118.937L354.189 115.969V115.782C354.162 115.756 354.13 115.738 354.094 115.728C354.058 115.719 354.021 115.718 353.985 115.727C349.51 117.398 345.893 118.804 343.361 119.788C342.488 120.131 340.845 120.78 338.714 121.568C332.423 123.911 329.277 124.981 328.436 124.208C327.595 123.435 328.294 121.233 334.452 106.59C335.238 104.763 335.608 103.857 335.781 103.466C342.26 87.4884 346.876 66.8639 353.017 59.5856C354.268 58.1096 355.439 57.1256 355.88 57.0241C358.766 56.3447 361.604 55.4623 364.482 54.7672C377.913 51.3832 391.344 48.0147 404.775 44.6619C409.273 43.5452 413.795 42.4675 418.332 41.5382C420.691 41.0384 421.249 41.7959 420.321 43.9981C419.724 45.4351 419.079 46.8407 418.458 48.262C417.569 50.0191 416.665 51.7919 415.737 53.5646C413.603 57.6723 411.457 61.6941 409.297 65.63L409.155 66.411L411.31 68.5663L417.498 74.2281L419.417 76.446L423.514 81.7719L424.442 83.0917L425.37 84.5286C425.865 85.4579 426.251 86.2311 426.526 86.8168C426.674 87.0488 426.724 87.329 426.667 87.5977C426.549 87.9804 426.077 88.1678 425.621 88.4724C423.262 89.9639 420.903 91.5024 418.709 93.158C411.255 98.5274 405.62 106.019 402.55 114.641C402.352 115.338 401.925 115.947 401.335 116.373C400.746 116.798 400.03 117.013 399.302 116.984C392.519 117.394 385.863 118.996 379.643 121.717C374.611 123.81 369.68 126.207 366.606 131.018C366.379 131.086 366.14 131.107 365.904 131.079C365.668 131.051 365.441 130.974 365.237 130.854L364.53 130.198L363.877 129.549L363.633 129.276C363.248 128.769 362.847 128.269 362.485 127.761L362.218 127.511L361.109 125.949L357.712 121.139Z" fill="#393838"/>
<path d="M562.211 455.714C564.358 452.473 565.113 448.686 566.253 445.101C568.635 437.292 570.444 429.321 571.663 421.251C572.246 417.798 572.449 414.292 572.268 410.795C571.915 404.899 572.835 399.081 573.236 393.216C577.655 404.204 580.502 415.66 583.671 427.022C586.659 437.713 589.898 448.404 592.423 459.228C592.729 460.595 593.264 461.079 594.782 461.134C597.982 461.243 600.797 462.657 603.345 464.5C607.316 467.402 610.906 470.786 614.032 474.574C619.379 480.954 625.103 486.912 632.605 490.926C634.225 491.793 636.089 492.824 635.798 495.143C635.507 497.463 633.832 498.931 631.701 499.829C629.847 500.547 627.815 500.681 625.882 500.212L622.98 499.626C621.644 499.353 620.967 499.532 621.408 501.188C621.862 502.94 621.763 504.788 621.125 506.483C619.827 510.231 616.084 511.84 612.624 510.005C611.46 509.395 611.051 509.911 610.399 510.614C609.182 511.748 607.648 512.49 605.998 512.739C604.348 512.989 602.661 512.735 601.159 512.012C600.326 511.574 600.035 511.77 599.429 512.238C598.055 513.329 596.363 513.953 594.604 514.016C592.846 514.079 591.113 513.579 589.663 512.589C589.159 512.261 588.703 511.676 588.09 511.809C584.583 512.589 582.947 510.247 581.272 508.005C578.189 503.813 576.321 498.863 575.87 493.691C575.28 488.349 574.698 482.992 574.053 477.674C573.327 470.753 570.189 464.3 565.183 459.431C564.271 458.533 563.501 457.541 562.659 456.596L562.211 455.714Z" fill="#FFD00A"/>
<path d="M366.621 130.931C369.696 126.121 374.634 123.731 379.659 121.63C385.88 118.922 392.537 117.335 399.318 116.945C400.045 116.974 400.762 116.758 401.351 116.333C401.94 115.908 402.368 115.298 402.565 114.602C405.627 105.965 411.267 98.4603 418.733 93.0873C420.958 91.4395 423.294 89.8855 425.645 88.4017C426.329 87.9644 427.06 87.7613 426.549 86.7539C429.372 93.6417 435.718 97.5542 440.751 102.451C450.187 111.658 458.632 121.716 467.738 131.189C468.353 131.838 469.039 132.417 469.783 132.915C464.299 134.577 458.965 136.69 453.836 139.233C453.356 136.765 451.524 135.117 450.14 133.22C440.79 120.529 430.992 108.128 421.831 95.2817C420.36 93.2279 419.849 93.22 417.899 94.8678C414.541 97.7182 411.184 100.53 408.856 104.239C406.574 107.639 404.678 111.28 403.202 115.094C403.021 115.853 402.583 116.527 401.962 117.004C401.341 117.482 400.575 117.734 399.79 117.718C392.389 118.229 385.145 120.082 378.416 123.185C375.2 124.676 372.063 126.308 369.491 128.854C368.327 130.002 368.147 130.931 368.862 132.571C373.305 142.723 378.692 152.306 383.536 162.247C386.61 168.494 390.054 174.625 393.074 180.927C393.994 182.848 395.292 184.652 395.7 186.807C394.025 185.566 393.624 183.566 392.767 181.872C384.914 166.493 377.142 151.09 369.452 135.664C368.626 134.008 368.272 132.111 366.621 130.931Z" fill="#E9BB2A"/>
<path d="M341.23 121.669L341.741 122.88L342.064 123.411L343.683 126.347C343.86 126.801 344.149 127.204 344.524 127.516C344.9 127.829 345.349 128.042 345.83 128.135C348.079 128.479 349.188 129.955 349.668 132.04C349.684 132.41 349.731 132.779 349.809 133.141C353.371 142.184 355.872 151.719 362.289 159.459C364.058 161.59 363.971 161.715 361.392 162.879C359.874 163.574 358.365 164.277 356.823 164.909C355.644 165.401 354.865 165.136 354.464 163.785C353.065 159.443 351.539 155.109 348.96 151.29C346.358 147.269 344.031 143.079 341.993 138.748C341.293 137.342 341.521 136.327 342.834 135.507C343.503 134.578 342.834 134.008 342.252 133.399C342.09 133.27 341.964 133.102 341.888 132.91C341.812 132.718 341.789 132.509 341.82 132.305C341.616 131.038 341.774 129.739 342.276 128.557L340.884 125.066L340.546 124.52C340.367 124.381 340.222 124.203 340.123 124C340.023 123.797 339.971 123.574 339.972 123.348C337.948 118.272 335.933 113.196 333.925 108.12L335.057 105.215C337.102 110.697 339.159 116.182 341.23 121.669Z" fill="#FFD32B"/>
<path d="M453.82 139.249C458.95 136.707 464.284 134.594 469.767 132.931C479.069 130.854 488.238 131.463 497.47 133.759C509.989 136.882 521.643 141.802 531.967 149.526C533.841 150.818 535.33 152.588 536.277 154.649C533.829 153.716 531.509 152.48 529.372 150.971C518.013 143.208 505.199 137.79 491.69 135.039C485.093 133.735 478.519 134.259 472.032 135.711C466.229 136.757 460.586 138.542 455.243 141.021C452.963 141.693 451.044 143.192 448.284 143.755C450.029 141.818 452.066 140.701 453.82 139.249Z" fill="#201E1C"/>
<path d="M337.275 267.009C336.882 263.83 337.668 260.933 338.25 258.083C340.519 246.654 344.039 235.507 348.748 224.838C353.256 214.799 359.936 205.87 368.312 198.685C372.45 195.106 377.261 192.378 382.466 190.657C383.478 190.315 384.559 190.229 385.612 190.407C384.332 191.488 382.97 192.47 381.539 193.343C363.452 202.605 352.947 217.802 346.42 236.201C342.937 246.002 340.625 256.091 338.179 266.158C338.03 266.423 338.03 266.743 337.275 267.009Z" fill="#201E1C"/>
<path d="M455.18 141.021C460.524 138.546 466.166 136.767 471.969 135.727L472.582 136.945C472.763 138.179 471.796 138.468 470.954 138.647C467.008 139.559 463.251 141.144 459.851 143.333C458.656 144.059 457.885 143.473 457.115 142.661C456.517 142.076 456.344 140.99 455.18 141.021Z" fill="#E9BB2A"/>
<path d="M562.211 455.715L562.659 456.597L561.77 456.527C561.701 456.52 561.634 456.5 561.572 456.467C561.511 456.434 561.457 456.389 561.413 456.336C561.369 456.282 561.336 456.22 561.317 456.154C561.297 456.087 561.291 456.018 561.299 455.949C561.3 455.877 561.322 455.806 561.361 455.746C561.574 455.262 561.92 455.668 562.211 455.715Z" fill="#FBC827"/>
<path d="M474.187 244.893C453.741 243.566 436.253 229.657 431.724 211.102C428.94 199.779 431.173 189.236 436.937 179.217C451.296 154.227 490.134 144.2 516.414 163.895C520.857 167.19 524.757 171.095 527.375 176.031C526.536 176.131 525.686 176.094 524.859 175.921C522.264 174.898 520.66 175.874 519.496 178.092C518.906 179.201 517.971 179.342 516.791 179.076C512.757 178.17 510.17 180.06 509.462 184.09C509.195 185.652 509.62 187.214 509.462 188.729C508.149 187.167 507.394 185.043 505.035 183.738C507.042 188.006 507.28 192.886 505.699 197.326C504.118 201.767 500.844 205.413 496.582 207.479C492.373 209.53 487.523 209.862 483.071 208.402C478.619 206.942 474.922 203.807 472.771 199.67C471.703 197.686 471.054 195.507 470.865 193.266C470.676 191.024 470.95 188.768 471.67 186.636C473.903 179.982 478.747 176.14 485.62 174.469C481.85 174.164 478.058 174.632 474.478 175.843C459.702 180.833 451.107 194.836 454.331 209.9C456.384 219.615 462.344 226.456 471.56 230.532C472.213 230.829 472.889 231.485 473.439 230.087C475.594 224.659 480.619 223.574 485.235 227.432C484.11 228.056 483.041 228.689 482.718 230.087C482.435 231.172 481.523 231.477 480.446 231.563C477.678 231.789 476.719 232.867 476.962 235.6C477.062 236.107 477.002 236.632 476.791 237.104C476.58 237.576 476.228 237.973 475.783 238.24C472.7 240.278 472.362 241.746 474.187 244.893Z" fill="#FEFEFD"/>
<path d="M384.134 300.683C379.919 300.41 376.64 296.693 372.079 291.312C361.015 278.13 358.97 263.019 362.902 246.76C365.182 237.466 369.617 229.298 376.773 222.746C383.717 216.381 391.62 211.602 401.465 211.477C415.619 211.305 426.321 217.724 433.705 229.29C439.203 237.89 441.747 248.028 440.955 258.185C441.123 263.265 440.399 268.336 438.817 273.171C437.094 278.21 434.502 282.914 431.157 287.071C428.201 290.976 423.805 296.622 416.012 300.777C410.28 303.592 403.908 304.873 397.525 304.494C391.936 304.196 386.483 302.676 381.554 300.043C410.398 248.228 421.658 237.185 426.156 238.942C430.458 240.629 430.623 255.014 429.207 255.342C428.216 255.584 425.818 249.243 423.931 243.823C422.704 251.133 419.637 255.405 413.936 258.146C407.991 260.988 402.408 259.239 399.129 253.64C396.605 249.305 396.125 244.714 397.045 239.848C396.699 239.911 396.519 239.848 396.416 239.958C390.385 244.596 387.892 250.774 388.679 258.107C389.512 266.26 393.869 272.304 401.197 276.263C402.039 276.693 402.314 276.334 402.77 275.607C403.493 274.35 406.206 272.413 406.576 272.663C407.677 273.444 396.173 301.472 384.134 300.683Z" fill="#FEFEFD"/>
<path d="M514.235 262.612C513.426 265.562 512.138 268.36 510.421 270.898C502.872 281.979 491.164 281.144 474.894 290.562C463.099 297.38 455.55 305.751 455.904 306.228C456.375 306.852 472.488 295.911 481.853 289.555C489.937 284.088 491.093 283.065 495.701 280.3C500.309 277.536 502.479 276.544 505.326 274.155C509.068 270.961 512.102 267.03 514.235 262.612Z" fill="#1E1903"/>
<path d="M536.457 242.16C536.363 243.807 536.284 245.08 534.775 245.385C533.406 245.666 532.746 244.604 532.258 243.596C531.584 242.265 531.173 240.818 531.047 239.333C530.703 237.208 530.22 235.108 529.601 233.046C529.48 232.729 529.476 232.381 529.588 232.061C529.7 231.741 529.921 231.471 530.214 231.297C530.431 231.21 530.673 231.207 530.892 231.29C531.11 231.372 531.29 231.534 531.393 231.742C533.281 235.256 535.797 238.458 536.457 242.16Z" fill="#FBC826"/>
<path d="M527.871 249.407C527.981 248.759 527.462 247.76 528.272 247.439C529.082 247.119 529.719 248.025 530.167 248.705C531.386 250.594 532.99 252.25 533.525 254.468C533.831 255.749 533.981 257.178 532.542 257.802C531.103 258.427 530.183 257.178 529.554 256.084C528.295 254.085 528.115 251.75 527.871 249.407Z" fill="#FBC826"/>
<path d="M509.47 188.729C510.17 191.009 510.728 193.329 511.577 195.546C515.682 206.237 510.791 225.425 493.546 230.907C493.122 231.048 492.713 231.173 492.241 231.298C491.077 231.618 489.882 232.25 488.75 232.079C487.617 231.907 487.963 230.275 487.177 229.501C486.391 228.728 486.17 227.854 485.211 227.401C480.595 223.551 475.57 224.636 473.463 230.064C472.905 231.462 472.236 230.806 471.584 230.509C462.344 226.401 456.399 219.576 454.347 209.877C451.146 194.805 459.741 180.81 474.493 175.82C478.075 174.605 481.871 174.137 485.644 174.446C478.771 176.086 473.888 179.951 471.686 186.605C470.965 188.738 470.691 190.996 470.88 193.238C471.069 195.481 471.718 197.662 472.787 199.646C474.939 203.784 478.638 206.919 483.091 208.379C487.544 209.839 492.396 209.508 496.605 207.456C500.869 205.391 504.144 201.745 505.727 197.305C507.31 192.864 507.073 187.984 505.067 183.715C507.402 185.043 508.157 187.136 509.47 188.729Z" fill="#07090A"/>
<path d="M428.782 264.003C426.187 271.195 420.919 275.615 413.724 278.13C412.788 277.06 412.363 275.662 411.365 274.624C408.408 271.656 404.822 272.008 402.715 275.623C402.29 276.35 401.991 276.709 401.142 276.279C393.813 272.32 389.488 266.275 388.615 258.123C387.829 250.79 390.298 244.612 396.361 239.974C396.456 239.903 396.644 239.927 396.99 239.864C396.062 244.729 396.518 249.321 399.066 253.656C402.353 259.255 407.936 261.004 413.881 258.162C419.574 255.42 422.649 251.133 423.876 243.839C428.767 250.126 430.449 256.662 428.782 264.003Z" fill="#0D0F0F"/>
</svg>
